<svg xmlns="http://www.w3.org/2000/svg" xmlns:xlink="http://www.w3.org/1999/xlink" version="1.1" viewBox="0 0 2616 3220" style="background: #111111"><defs joint-selector="defs"></defs><g joint-selector="layers"  transform="matrix(1,0,0,1,0,0)"><g ></g><g ><g   id="j_359"  transform="translate(20,3175)"><g id="v-4185"><text  id="v-4186" font-size="22px" xml:space="preserve" y="0.8em" font-weight="normal" text-anchor="start" fill="#777777" pointer-events="none" font-family="Open Sans"><tspan dy="0" >Saturday, September 16, 2023 at 11:11 PM Eastern Daylight Time</tspan></text></g></g><g   id="j_358"  transform="translate(20,3131)"><g id="v-4183"><text  id="v-4184" font-size="36px" xml:space="preserve" y="0.8em" font-weight="normal" text-anchor="start" fill="#bbbbbb" pointer-events="none" font-family="Open Sans"><tspan dy="0" >[Container] Trip Management</tspan></text></g></g><g   id="j_345"  transform="translate(208,1408)" style=""><g  id="v-4007" style="opacity: 1;"><rect  id="v-4008" rx="20" ry="20" stroke="#0f5eaa" stroke-width="2" pointer-events="visiblePainted" fill="#1168bd" width="450" height="300" style="fill: rgb(17, 104, 189); stroke: rgb(15, 94, 170);"></rect><text  id="v-4009" font-size="34" xml:space="preserve" y="0.8em" font-weight="bold" text-anchor="middle" pointer-events="visible" font-family="Open Sans" fill="#ffffff" transform="matrix(1,0,0,1,225,113.1)" style="fill: rgb(255, 255, 255);"><tspan dy="0" >Email Processing</tspan></text><text  id="v-4010" font-size="17" xml:space="preserve" y="0.8em" text-anchor="middle" font-family="Open Sans" fill="#ffffff" transform="matrix(1,0,0,1,225,155.6)" style="fill: rgb(255, 255, 255);"><tspan dy="0" >[Software System]</tspan></text><text  id="v-4011" font-size="24" xml:space="preserve" display="none" y="0.8em" text-anchor="middle" font-family="Open Sans" fill="#ffffff" transform="matrix(1,0,0,1,225,186.9)" style="fill: rgb(255, 255, 255);"><tspan dy="0" style="fill-opacity: 0; stroke-opacity: 0;" >-</tspan></text><g  id="v-4012" color="#ffffff" transform="matrix(1,0,0,1,210,196.9)" display="none" style="fill: rgb(255, 255, 255);"><g  transform="translate(5 0)"><svg xmlns="http://www.w3.org/2000/svg" width="20" height="20" fill="currentColor" viewBox="0 0 16 16"><path fill-rule="evenodd" d="M6.5 12a5.5 5.5 0 1 0 0-11 5.5 5.5 0 0 0 0 11zM13 6.5a6.5 6.5 0 1 1-13 0 6.5 6.5 0 0 1 13 0z"></path><path d="M10.344 11.742c.03.04.062.078.098.115l3.85 3.85a1 1 0 0 0 1.415-1.414l-3.85-3.85a1.007 1.007 0 0 0-.115-.1 6.538 6.538 0 0 1-1.398 1.4z"></path><path fill-rule="evenodd" d="M6.5 3a.5.5 0 0 1 .5.5V6h2.5a.5.5 0 0 1 0 1H7v2.5a.5.5 0 0 1-1 0V7H3.5a.5.5 0 0 1 0-1H6V3.5a.5.5 0 0 1 .5-.5z"></path></svg></g><g ></g><g ></g><g ></g></g><image  id="v-4013"></image></g></g><g   id="j_346"  transform="translate(1958,2608)" style=""><g  id="v-4020" style="opacity: 1;"><rect  id="v-4021" rx="20" ry="20" stroke="#0f5eaa" stroke-width="2" pointer-events="visiblePainted" fill="#1168bd" width="450" height="300" style="fill: rgb(17, 104, 189); stroke: rgb(15, 94, 170);"></rect><text  id="v-4022" font-size="34" xml:space="preserve" y="0.8em" font-weight="bold" text-anchor="middle" pointer-events="visible" font-family="Open Sans" fill="#ffffff" transform="matrix(1,0,0,1,225,53.1)" style="fill: rgb(255, 255, 255);"><tspan dy="0" >Realtime Tracking</tspan></text><text  id="v-4023" font-size="17" xml:space="preserve" y="0.8em" text-anchor="middle" font-family="Open Sans" fill="#ffffff" transform="matrix(1,0,0,1,225,95.6)" style="fill: rgb(255, 255, 255);"><tspan dy="0" >[Software System]</tspan></text><text  id="v-4024" font-size="24" xml:space="preserve" y="0.8em" text-anchor="middle" font-family="Open Sans" fill="#ffffff" transform="matrix(1,0,0,1,225,126.9)" style="fill: rgb(255, 255, 255);"><tspan dy="0" >Responsible for polling and listening</tspan><tspan dy="1.2em" x="0" >to changes in services and</tspan><tspan dy="1.2em" x="0" >bookings, and notifying the</tspan><tspan dy="1.2em" x="0" >travelers and observers</tspan></text><g  id="v-4025" color="#ffffff" transform="matrix(1,0,0,1,210,256.9)" display="none" style="fill: rgb(255, 255, 255);"><g  transform="translate(5 0)"><svg xmlns="http://www.w3.org/2000/svg" width="20" height="20" fill="currentColor" viewBox="0 0 16 16"><path fill-rule="evenodd" d="M6.5 12a5.5 5.5 0 1 0 0-11 5.5 5.5 0 0 0 0 11zM13 6.5a6.5 6.5 0 1 1-13 0 6.5 6.5 0 0 1 13 0z"></path><path d="M10.344 11.742c.03.04.062.078.098.115l3.85 3.85a1 1 0 0 0 1.415-1.414l-3.85-3.85a1.007 1.007 0 0 0-.115-.1 6.538 6.538 0 0 1-1.398 1.4z"></path><path fill-rule="evenodd" d="M6.5 3a.5.5 0 0 1 .5.5V6h2.5a.5.5 0 0 1 0 1H7v2.5a.5.5 0 0 1-1 0V7H3.5a.5.5 0 0 1 0-1H6V3.5a.5.5 0 0 1 .5-.5z"></path></svg></g><g ></g><g ></g><g ></g></g><image  id="v-4026"></image></g></g><g   id="j_344"  transform="translate(530,1988)" style=""><g id="v-3999"><rect  id="v-4000" width="1240" height="1011" rx="0" ry="0" fill="#111111" stroke="#0f5eaa" stroke-width="1" stroke-dasharray="20,20" pointer-events="none"></rect><text  id="v-4001" font-size="24px" xml:space="preserve" y="972" font-weight="normal" fill="#0f5eaa" text-anchor="start" pointer-events="visible" font-family="Open Sans" transform="matrix(1,0,0,1,15,0)"><tspan dy="0" >Trip Management</tspan></text><text  id="v-4002" font-size="17px" xml:space="preserve" y="996" font-weight="normal" fill="#0f5eaa" text-anchor="start" pointer-events="visible" font-family="Open Sans" transform="matrix(1,0,0,1,15,0)"><tspan dy="0" >[Software System]</tspan></text><image  id="v-4003" pointer-events="visible"></image></g></g><g   id="j_343"  transform="translate(550,2008)" style=""><g  id="v-3992" style="opacity: 1;"><rect  id="v-3993" rx="20" ry="20" stroke="#3c7fc0" stroke-width="2" pointer-events="visiblePainted" fill="#438dd5" width="450" height="300" style="fill: rgb(67, 141, 213); stroke: rgb(60, 127, 192);"></rect><text  id="v-3994" font-size="34" xml:space="preserve" y="0.8em" font-weight="bold" text-anchor="middle" pointer-events="visible" font-family="Open Sans" fill="#ffffff" transform="matrix(1,0,0,1,225,68.1)" style="fill: rgb(255, 255, 255);"><tspan dy="0" >Trip Endpoint</tspan></text><text  id="v-3995" font-size="17" xml:space="preserve" y="0.8em" text-anchor="middle" font-family="Open Sans" fill="#ffffff" transform="matrix(1,0,0,1,225,110.6)" style="fill: rgb(255, 255, 255);"><tspan dy="0" >[Container]</tspan></text><text  id="v-3996" font-size="24" xml:space="preserve" y="0.8em" text-anchor="middle" font-family="Open Sans" fill="#ffffff" transform="matrix(1,0,0,1,225,141.9)" style="fill: rgb(255, 255, 255);"><tspan dy="0" >contains REST API and Websocket</tspan><tspan dy="1.2em" x="0" >implementation used by the Web</tspan><tspan dy="1.2em" x="0" >Application and Mobile Apps</tspan></text><g  id="v-3997" color="#ffffff" transform="matrix(1,0,0,1,210,241.9)" display="none" style="fill: rgb(255, 255, 255);"><g  transform="translate(5 0)"><svg xmlns="http://www.w3.org/2000/svg" width="20" height="20" fill="currentColor" viewBox="0 0 16 16"><path fill-rule="evenodd" d="M6.5 12a5.5 5.5 0 1 0 0-11 5.5 5.5 0 0 0 0 11zM13 6.5a6.5 6.5 0 1 1-13 0 6.5 6.5 0 0 1 13 0z"></path><path d="M10.344 11.742c.03.04.062.078.098.115l3.85 3.85a1 1 0 0 0 1.415-1.414l-3.85-3.85a1.007 1.007 0 0 0-.115-.1 6.538 6.538 0 0 1-1.398 1.4z"></path><path fill-rule="evenodd" d="M6.5 3a.5.5 0 0 1 .5.5V6h2.5a.5.5 0 0 1 0 1H7v2.5a.5.5 0 0 1-1 0V7H3.5a.5.5 0 0 1 0-1H6V3.5a.5.5 0 0 1 .5-.5z"></path></svg></g><g ></g><g ></g><g ></g></g><image  id="v-3998"></image></g></g><g   id="j_347"  transform="translate(879,2608)" style=""><g  id="v-4033" style="opacity: 1;"><path  d="M 0,30 a 225,30 0,0,0 450 0 a 225,30 0,0,0 -450 0 l 0,240 a 225,30 0,0,0 450 0 l 0,-240" id="v-4034" stroke="#3c7fc0" stroke-width="2" pointer-events="visiblePainted" fill="#438dd5" style="fill: rgb(67, 141, 213); stroke: rgb(60, 127, 192);"></path><rect  id="v-4035" stroke-width="0" pointer-events="visiblePainted" fill="none" stroke="none" width="450" height="270" x="0" y="30"></rect><text  id="v-4036" font-size="34" xml:space="preserve" y="0.8em" font-weight="bold" text-anchor="middle" pointer-events="visible" font-family="Open Sans" fill="#ffffff" transform="matrix(1,0,0,1,225,128.1)" style="fill: rgb(255, 255, 255);"><tspan dy="0" >Realtime Database</tspan></text><text  id="v-4037" font-size="17" xml:space="preserve" y="0.8em" text-anchor="middle" font-family="Open Sans" fill="#ffffff" transform="matrix(1,0,0,1,225,170.6)" style="fill: rgb(255, 255, 255);"><tspan dy="0" >[Container]</tspan></text><text  id="v-4038" font-size="24" xml:space="preserve" y="0.8em" text-anchor="middle" font-family="Open Sans" fill="#ffffff" transform="matrix(1,0,0,1,225,201.9)" style="fill: rgb(255, 255, 255);"><tspan dy="0" >Contains Trip iterenary information</tspan></text><g  id="v-4039" font-weight="normal" text-anchor="middle" color="#ffffff" transform="matrix(1,0,0,1,222.5,241.9)" display="none" style="fill: rgb(255, 255, 255);"><g ></g><g ></g><g ></g><g ></g></g><image  id="v-4040"></image></g></g><g   id="j_348"  transform="translate(1300,2008)" style=""><g  id="v-4047" style="opacity: 1;"><rect  id="v-4048" rx="20" ry="20" stroke="#3c7fc0" stroke-width="2" pointer-events="visiblePainted" fill="#438dd5" width="450" height="300" style="fill: rgb(67, 141, 213); stroke: rgb(60, 127, 192);"></rect><text  id="v-4049" font-size="34" xml:space="preserve" y="0.8em" font-weight="bold" text-anchor="middle" pointer-events="visible" font-family="Open Sans" fill="#ffffff" transform="matrix(1,0,0,1,225,61.9)" style="fill: rgb(255, 255, 255);"><tspan dy="0" >Realtime Tracking</tspan><tspan dy="1.2em" x="0" >Subscriber</tspan></text><text  id="v-4050" font-size="17" xml:space="preserve" y="0.8em" text-anchor="middle" font-family="Open Sans" fill="#ffffff" transform="matrix(1,0,0,1,225,146.9)" style="fill: rgb(255, 255, 255);"><tspan dy="0" >[Container]</tspan></text><text  id="v-4051" font-size="24" xml:space="preserve" y="0.8em" text-anchor="middle" font-family="Open Sans" fill="#ffffff" transform="matrix(1,0,0,1,225,178.1)" style="fill: rgb(255, 255, 255);"><tspan dy="0" >Subscribes to real-time updates in</tspan><tspan dy="1.2em" x="0" >Trip information</tspan></text><g  id="v-4052" color="#ffffff" transform="matrix(1,0,0,1,222.5,248.1)" display="none" style="fill: rgb(255, 255, 255);"><g ></g><g ></g><g ></g><g ></g></g><image  id="v-4053"></image></g></g><g   id="j_349"  transform="translate(546,208)" style=""><g  id="v-4054" style="opacity: 1;"><rect  id="v-4055" rx="20" ry="20" stroke="#0f5eaa" stroke-width="2" pointer-events="visiblePainted" fill="#1168bd" width="450" height="300" style="fill: rgb(17, 104, 189); stroke: rgb(15, 94, 170);"></rect><text  id="v-4056" font-size="34" xml:space="preserve" y="0.8em" font-weight="bold" text-anchor="middle" pointer-events="visible" font-family="Open Sans" fill="#ffffff" transform="matrix(1,0,0,1,225,113.1)" style="fill: rgb(255, 255, 255);"><tspan dy="0" >Web Application</tspan></text><text  id="v-4057" font-size="17" xml:space="preserve" y="0.8em" text-anchor="middle" font-family="Open Sans" fill="#ffffff" transform="matrix(1,0,0,1,225,155.6)" style="fill: rgb(255, 255, 255);"><tspan dy="0" >[Software System]</tspan></text><text  id="v-4058" font-size="24" xml:space="preserve" display="none" y="0.8em" text-anchor="middle" font-family="Open Sans" fill="#ffffff" transform="matrix(1,0,0,1,225,186.9)" style="fill: rgb(255, 255, 255);"><tspan dy="0" style="fill-opacity: 0; stroke-opacity: 0;" >-</tspan></text><g  id="v-4059" color="#ffffff" transform="matrix(1,0,0,1,222.5,196.9)" display="none" style="fill: rgb(255, 255, 255);"><g ></g><g ></g><g ></g><g ></g></g><image  id="v-4060"></image></g></g><g   id="j_350"  transform="translate(546,808)" style=""><g  id="v-4061" style="opacity: 1;"><rect  id="v-4062" rx="20" ry="20" stroke="#0f5eaa" stroke-width="2" pointer-events="visiblePainted" fill="#1168bd" width="450" height="300" style="fill: rgb(17, 104, 189); stroke: rgb(15, 94, 170);"></rect><text  id="v-4063" font-size="34" xml:space="preserve" y="0.8em" font-weight="bold" text-anchor="middle" pointer-events="visible" font-family="Open Sans" fill="#ffffff" transform="matrix(1,0,0,1,225,113.1)" style="fill: rgb(255, 255, 255);"><tspan dy="0" >Load Balancer</tspan></text><text  id="v-4064" font-size="17" xml:space="preserve" y="0.8em" text-anchor="middle" font-family="Open Sans" fill="#ffffff" transform="matrix(1,0,0,1,225,155.6)" style="fill: rgb(255, 255, 255);"><tspan dy="0" >[Software System]</tspan></text><text  id="v-4065" font-size="24" xml:space="preserve" display="none" y="0.8em" text-anchor="middle" font-family="Open Sans" fill="#ffffff" transform="matrix(1,0,0,1,225,186.9)" style="fill: rgb(255, 255, 255);"><tspan dy="0" style="fill-opacity: 0; stroke-opacity: 0;" >-</tspan></text><g  id="v-4066" color="#ffffff" transform="matrix(1,0,0,1,222.5,196.9)" display="none" style="fill: rgb(255, 255, 255);"><g ></g><g ></g><g ></g><g ></g></g><image  id="v-4067"></image></g></g><g   id="j_351" ><path  stroke="#aaaaaa" d="M 783 1108 L 807 1398 C 807.6666666666666 1404.6666666666665 808 1411.3333333333333 808 1418 L 808 1698 C 808 1704.6666666666665 807.6666666666666 1711.333333333333 807 1718 L 786 2008" id="v-4079" stroke-width="2" stroke-dasharray="30 30" fill="none" style="opacity: 1;"></path><path  fill="black" stroke="black" d="M 0 0 0 0" transform="matrix(0.08195663684284686,0.9966358962416564,-0.9966358962416564,0.08195663684284686,783.3300170898438,1108)"></path><path  fill="#aaaaaa" stroke="#aaaaaa" d="M 20 0 L 0 10 L 20 20 z" id="v-4081" transform="matrix(0.07313694968311482,-0.9973219072050155,0.9973219072050155,0.07313694968311482,776.0267957084624,2007.2685829736565)" style="opacity: 1;"></path><path  d="M 783 1108 L 807 1398 C 807.6666666666666 1404.6666666666665 808 1411.3333333333333 808 1418 L 808 1698 C 808 1704.6666666666665 807.6666666666666 1711.333333333333 807 1718 L 786 2008" id="v-4080" fill="none" style="cursor: auto; pointer-events: visiblepainted;"></path><g ><g id="v-4073"  label-idx="0" cursor="move" transform="matrix(1,0,0,1,808,1557.8839111328125)" style="cursor: default; opacity: 1;"><rect joint-selector="rect" id="v-4076" fill="#111111" rx="3" ry="3" pointer-events="none" width="82.24041748046875" height="33.95733070373535" transform="matrix(1,0,0,1,-41.1,-17)"></rect><text joint-selector="text" id="v-4075" font-size="24px" xml:space="preserve" y="0.8em" fill="#aaaaaa" text-anchor="middle" pointer-events="none" font-family="Open Sans" font-weight="normal" transform="matrix(1,0,0,1,0,-9.8)"><tspan dy="0" >Proxies</tspan></text></g><g id="v-4074"  label-idx="1" cursor="move" transform="matrix(1,0,0,1,798,1584.8839111328125)" style="cursor: default; opacity: 1;"><rect joint-selector="rect" id="v-4078" fill="#ffffff" rx="3" ry="3"  width="0" height="0" transform="matrix(1,0,0,1,0,0)" display="none"></rect><text joint-selector="text" id="v-4077" fill="#000000" font-size="14" text-anchor="middle" pointer-events="none"></text></g></g><g  display="none" style="display: none;"><g  transform="translate(808, 1408)" id="v-4069"><circle  idx="0" r="10"></circle><path  idx="0" d="M16,5.333c-7.732,0-14,4.701-14,10.5c0,1.982,0.741,3.833,2.016,5.414L2,25.667l5.613-1.441c2.339,1.317,5.237,2.107,8.387,2.107c7.732,0,14-4.701,14-10.5C30,10.034,23.732,5.333,16,5.333z" transform="translate(5, -33)"></path><path  idx="0" transform="scale(.8) translate(9.5, -37)" d="M24.778,21.419 19.276,15.917 24.777,10.415 21.949,7.585 16.447,13.087 10.945,7.585 8.117,10.415 13.618,15.917 8.116,21.419 10.946,24.248 16.447,18.746 21.948,24.248z"><title>Remove vertex.</title></path></g><g  transform="translate(808, 1708)" id="v-4070"><circle  idx="1" r="10"></circle><path  idx="1" d="M16,5.333c-7.732,0-14,4.701-14,10.5c0,1.982,0.741,3.833,2.016,5.414L2,25.667l5.613-1.441c2.339,1.317,5.237,2.107,8.387,2.107c7.732,0,14-4.701,14-10.5C30,10.034,23.732,5.333,16,5.333z" transform="translate(5, -33)"></path><path  idx="1" transform="scale(.8) translate(9.5, -37)" d="M24.778,21.419 19.276,15.917 24.777,10.415 21.949,7.585 16.447,13.087 10.945,7.585 8.117,10.415 13.618,15.917 8.116,21.419 10.946,24.248 16.447,18.746 21.948,24.248z"><title>Remove vertex.</title></path></g></g><g  id="v-4083" display="none"><g  id="v-4071"><path  end="source" d="M 26 0 L 0 13 L 26 26 z"></path></g><g  id="v-4072"><path  end="target" d="M 26 0 L 0 13 L 26 26 z"></path></g></g><g  id="v-4082" display="none"><g  id="v-4068" transform="translate(786.2990664704943, 1147.8637198518059) "><g  event="remove"><circle r="11"></circle><path transform="scale(.8) translate(-16, -16)" d="M24.778,21.419 19.276,15.917 24.777,10.415 21.949,7.585 16.447,13.087 10.945,7.585 8.117,10.415 13.618,15.917 8.116,21.419 10.946,24.248 16.447,18.746 21.948,24.248z"></path><title>Remove link.</title></g><g  event="link:options"><circle r="11" transform="translate(25)"></circle><path fill="white" transform="scale(.55) translate(29, -16)" d="M31.229,17.736c0.064-0.571,0.104-1.148,0.104-1.736s-0.04-1.166-0.104-1.737l-4.377-1.557c-0.218-0.716-0.504-1.401-0.851-2.05l1.993-4.192c-0.725-0.91-1.549-1.734-2.458-2.459l-4.193,1.994c-0.647-0.347-1.334-0.632-2.049-0.849l-1.558-4.378C17.165,0.708,16.588,0.667,16,0.667s-1.166,0.041-1.737,0.105L12.707,5.15c-0.716,0.217-1.401,0.502-2.05,0.849L6.464,4.005C5.554,4.73,4.73,5.554,4.005,6.464l1.994,4.192c-0.347,0.648-0.632,1.334-0.849,2.05l-4.378,1.557C0.708,14.834,0.667,15.412,0.667,16s0.041,1.165,0.105,1.736l4.378,1.558c0.217,0.715,0.502,1.401,0.849,2.049l-1.994,4.193c0.725,0.909,1.549,1.733,2.459,2.458l4.192-1.993c0.648,0.347,1.334,0.633,2.05,0.851l1.557,4.377c0.571,0.064,1.148,0.104,1.737,0.104c0.588,0,1.165-0.04,1.736-0.104l1.558-4.377c0.715-0.218,1.399-0.504,2.049-0.851l4.193,1.993c0.909-0.725,1.733-1.549,2.458-2.458l-1.993-4.193c0.347-0.647,0.633-1.334,0.851-2.049L31.229,17.736zM16,20.871c-2.69,0-4.872-2.182-4.872-4.871c0-2.69,2.182-4.872,4.872-4.872c2.689,0,4.871,2.182,4.871,4.872C20.871,18.689,18.689,20.871,16,20.871z"></path><title>Link options.</title></g></g></g></g><g   id="j_352" ><path  stroke="#aaaaaa" d="M 519 1708 L 690 2008" id="v-4096" stroke-width="2" stroke-dasharray="30 30" fill="none" style="opacity: 1;"></path><path  fill="black" stroke="black" d="M 0 0 0 0" transform="matrix(0.4952030382767091,0.8687772734605321,-0.8687772734605321,0.4952030382767091,518.5,1708)"></path><path  fill="#aaaaaa" stroke="#aaaaaa" d="M 20 0 L 0 10 L 20 20 z" id="v-4098" transform="matrix(-0.49520298043436217,-0.8687773064306668,0.8687773064306668,-0.49520298043436217,680.8122303728494,2012.9520587280253)" style="opacity: 1;"></path><path  d="M 519 1708 L 690 2008" id="v-4097" fill="none" style="cursor: auto; pointer-events: visiblepainted;"></path><g ><g id="v-4090"  label-idx="0" cursor="move" transform="matrix(1,0,0,1,604.5,1858)" style="cursor: default; opacity: 1;"><rect joint-selector="rect" id="v-4093" fill="#111111" rx="3" ry="3" pointer-events="none" width="143.83897399902344" height="62.75733184814453" transform="matrix(1,0,0,1,-71.8,-31.4)"></rect><text joint-selector="text" id="v-4092" font-size="24px" xml:space="preserve" y="0.8em" fill="#aaaaaa" text-anchor="middle" pointer-events="none" font-family="Open Sans" font-weight="normal" transform="matrix(1,0,0,1,0,-24.2)"><tspan dy="0" >Reports New</tspan><tspan dy="1.2em" x="0" >Booking</tspan></text></g><g id="v-4091"  label-idx="1" cursor="move" transform="matrix(1,0,0,1,594.5,1900)" style="cursor: default; opacity: 1;"><rect joint-selector="rect" id="v-4095" fill="#ffffff" rx="3" ry="3"  width="0" height="0" transform="matrix(1,0,0,1,0,0)" display="none"></rect><text joint-selector="text" id="v-4094" fill="#000000" font-size="14" text-anchor="middle" pointer-events="none"></text></g></g><g  display="none" style="display: none;"></g><g  id="v-4100" display="none"><g  id="v-4088"><path  end="source" d="M 26 0 L 0 13 L 26 26 z"></path></g><g  id="v-4089"><path  end="target" d="M 26 0 L 0 13 L 26 26 z"></path></g></g><g  id="v-4099" display="none"><g  id="v-4087" transform="translate(538.8081217603926, 1742.7510908077065) "><g  event="remove"><circle r="11"></circle><path transform="scale(.8) translate(-16, -16)" d="M24.778,21.419 19.276,15.917 24.777,10.415 21.949,7.585 16.447,13.087 10.945,7.585 8.117,10.415 13.618,15.917 8.116,21.419 10.946,24.248 16.447,18.746 21.948,24.248z"></path><title>Remove link.</title></g><g  event="link:options"><circle r="11" transform="translate(25)"></circle><path fill="white" transform="scale(.55) translate(29, -16)" d="M31.229,17.736c0.064-0.571,0.104-1.148,0.104-1.736s-0.04-1.166-0.104-1.737l-4.377-1.557c-0.218-0.716-0.504-1.401-0.851-2.05l1.993-4.192c-0.725-0.91-1.549-1.734-2.458-2.459l-4.193,1.994c-0.647-0.347-1.334-0.632-2.049-0.849l-1.558-4.378C17.165,0.708,16.588,0.667,16,0.667s-1.166,0.041-1.737,0.105L12.707,5.15c-0.716,0.217-1.401,0.502-2.05,0.849L6.464,4.005C5.554,4.73,4.73,5.554,4.005,6.464l1.994,4.192c-0.347,0.648-0.632,1.334-0.849,2.05l-4.378,1.557C0.708,14.834,0.667,15.412,0.667,16s0.041,1.165,0.105,1.736l4.378,1.558c0.217,0.715,0.502,1.401,0.849,2.049l-1.994,4.193c0.725,0.909,1.549,1.733,2.459,2.458l4.192-1.993c0.648,0.347,1.334,0.633,2.05,0.851l1.557,4.377c0.571,0.064,1.148,0.104,1.737,0.104c0.588,0,1.165-0.04,1.736-0.104l1.558-4.377c0.715-0.218,1.399-0.504,2.049-0.851l4.193,1.993c0.909-0.725,1.733-1.549,2.458-2.458l-1.993-4.193c0.347-0.647,0.633-1.334,0.851-2.049L31.229,17.736zM16,20.871c-2.69,0-4.872-2.182-4.872-4.871c0-2.69,2.182-4.872,4.872-4.872c2.689,0,4.871,2.182,4.871,4.872C20.871,18.689,18.689,20.871,16,20.871z"></path><title>Link options.</title></g></g></g></g><g   id="j_353" ><path  stroke="#aaaaaa" d="M 857 2308 L 1022 2608" id="v-4113" stroke-width="2" stroke-dasharray="30 30" fill="none" style="opacity: 1;"></path><path  fill="black" stroke="black" d="M 0 0 0 0" transform="matrix(0.4807963644981215,0.8768322849241977,-0.8768322849241977,0.4807963644981215,857.25,2308)"></path><path  fill="#aaaaaa" stroke="#aaaaaa" d="M 20 0 L 0 10 L 20 20 z" id="v-4115" transform="matrix(-0.4807963644981214,-0.8768322849241978,0.8768322849241978,-0.4807963644981214,1012.9816573973017,2612.807975947348)" style="opacity: 1;"></path><path  d="M 857 2308 L 1022 2608" id="v-4114" fill="none" style="cursor: auto; pointer-events: visiblepainted;"></path><g ><g id="v-4107"  label-idx="0" cursor="move" transform="matrix(1,0,0,1,939.5,2458)" style="cursor: default; opacity: 1;"><rect joint-selector="rect" id="v-4110" fill="#111111" rx="3" ry="3" pointer-events="none" width="150.82211303710938" height="91.55734252929688" transform="matrix(1,0,0,1,-75.1,-45.8)"></rect><text joint-selector="text" id="v-4109" font-size="24px" xml:space="preserve" y="0.8em" fill="#aaaaaa" text-anchor="middle" pointer-events="none" font-family="Open Sans" font-weight="normal" transform="matrix(1,0,0,1,0,-38.6)"><tspan dy="0" >Subscribes to</tspan><tspan dy="1.2em" x="0" >aggregate</tspan><tspan dy="1.2em" x="0" >changes</tspan></text></g><g id="v-4108"  label-idx="1" cursor="move" transform="matrix(1,0,0,1,929.5,2515)" style="cursor: default; opacity: 1;"><rect joint-selector="rect" id="v-4112" fill="#ffffff" rx="3" ry="3"  width="0" height="0" transform="matrix(1,0,0,1,0,0)" display="none"></rect><text joint-selector="text" id="v-4111" fill="#000000" font-size="14" text-anchor="middle" pointer-events="none"></text></g></g><g  display="none" style="display: none;"></g><g  id="v-4117" display="none"><g  id="v-4105"><path  end="source" d="M 26 0 L 0 13 L 26 26 z"></path></g><g  id="v-4106"><path  end="target" d="M 26 0 L 0 13 L 26 26 z"></path></g></g><g  id="v-4116" display="none"><g  id="v-4104" transform="translate(876.2767499908862, 2343.0486363470654) "><g  event="remove"><circle r="11"></circle><path transform="scale(.8) translate(-16, -16)" d="M24.778,21.419 19.276,15.917 24.777,10.415 21.949,7.585 16.447,13.087 10.945,7.585 8.117,10.415 13.618,15.917 8.116,21.419 10.946,24.248 16.447,18.746 21.948,24.248z"></path><title>Remove link.</title></g><g  event="link:options"><circle r="11" transform="translate(25)"></circle><path fill="white" transform="scale(.55) translate(29, -16)" d="M31.229,17.736c0.064-0.571,0.104-1.148,0.104-1.736s-0.04-1.166-0.104-1.737l-4.377-1.557c-0.218-0.716-0.504-1.401-0.851-2.05l1.993-4.192c-0.725-0.91-1.549-1.734-2.458-2.459l-4.193,1.994c-0.647-0.347-1.334-0.632-2.049-0.849l-1.558-4.378C17.165,0.708,16.588,0.667,16,0.667s-1.166,0.041-1.737,0.105L12.707,5.15c-0.716,0.217-1.401,0.502-2.05,0.849L6.464,4.005C5.554,4.73,4.73,5.554,4.005,6.464l1.994,4.192c-0.347,0.648-0.632,1.334-0.849,2.05l-4.378,1.557C0.708,14.834,0.667,15.412,0.667,16s0.041,1.165,0.105,1.736l4.378,1.558c0.217,0.715,0.502,1.401,0.849,2.049l-1.994,4.193c0.725,0.909,1.549,1.733,2.459,2.458l4.192-1.993c0.648,0.347,1.334,0.633,2.05,0.851l1.557,4.377c0.571,0.064,1.148,0.104,1.737,0.104c0.588,0,1.165-0.04,1.736-0.104l1.558-4.377c0.715-0.218,1.399-0.504,2.049-0.851l4.193,1.993c0.909-0.725,1.733-1.549,2.458-2.458l-1.993-4.193c0.347-0.647,0.633-1.334,0.851-2.049L31.229,17.736zM16,20.871c-2.69,0-4.872-2.182-4.872-4.871c0-2.69,2.182-4.872,4.872-4.872c2.689,0,4.871,2.182,4.871,4.872C20.871,18.689,18.689,20.871,16,20.871z"></path><title>Link options.</title></g></g></g></g><g   id="j_354" ><path  stroke="#aaaaaa" d="M 771 508 L 771 808" id="v-4127" stroke-width="2" stroke-dasharray="30 30" fill="none" style="opacity: 1;"></path><path  fill="black" stroke="black" d="M 0 0 0 0" transform="matrix(6.123233995736766e-17,1,-1,6.123233995736766e-17,771,508)"></path><path  fill="#aaaaaa" stroke="#aaaaaa" d="M 20 0 L 0 10 L 20 20 z" id="v-4129" transform="matrix(-1.8369701987210297e-16,-1,1,-1.8369701987210297e-16,761,808)" style="opacity: 1;"></path><path  d="M 771 508 L 771 808" id="v-4128" fill="none" style="cursor: auto; pointer-events: visiblepainted;"></path><g ><g id="v-4121"  label-idx="0" cursor="move" transform="matrix(1,0,0,1,771,658)" style="cursor: default; opacity: 1;"><rect joint-selector="rect" id="v-4124" fill="#111111" rx="3" ry="3" pointer-events="none" width="133.8207550048828" height="33.95733070373535" transform="matrix(1,0,0,1,-66.6,-17)"></rect><text joint-selector="text" id="v-4123" font-size="24px" xml:space="preserve" y="0.8em" fill="#aaaaaa" text-anchor="middle" pointer-events="none" font-family="Open Sans" font-weight="normal" transform="matrix(1,0,0,1,0,-9.8)"><tspan dy="0" >Connects to</tspan></text></g><g id="v-4122"  label-idx="1" cursor="move" transform="matrix(1,0,0,1,761,685)" style="cursor: default; opacity: 1;"><rect joint-selector="rect" id="v-4126" fill="#ffffff" rx="3" ry="3"  width="0" height="0" transform="matrix(1,0,0,1,0,0)" display="none"></rect><text joint-selector="text" id="v-4125" fill="#000000" font-size="14" text-anchor="middle" pointer-events="none"></text></g></g><g  display="none" style="display: none;"></g><g  id="v-4131" display="none"><g  id="v-4119"><path  end="source" d="M 26 0 L 0 13 L 26 26 z"></path></g><g  id="v-4120"><path  end="target" d="M 26 0 L 0 13 L 26 26 z"></path></g></g><g  id="v-4130" display="none"><g  id="v-4118" transform="translate(771, 548) "><g  event="remove"><circle r="11"></circle><path transform="scale(.8) translate(-16, -16)" d="M24.778,21.419 19.276,15.917 24.777,10.415 21.949,7.585 16.447,13.087 10.945,7.585 8.117,10.415 13.618,15.917 8.116,21.419 10.946,24.248 16.447,18.746 21.948,24.248z"></path><title>Remove link.</title></g><g  event="link:options"><circle r="11" transform="translate(25)"></circle><path fill="white" transform="scale(.55) translate(29, -16)" d="M31.229,17.736c0.064-0.571,0.104-1.148,0.104-1.736s-0.04-1.166-0.104-1.737l-4.377-1.557c-0.218-0.716-0.504-1.401-0.851-2.05l1.993-4.192c-0.725-0.91-1.549-1.734-2.458-2.459l-4.193,1.994c-0.647-0.347-1.334-0.632-2.049-0.849l-1.558-4.378C17.165,0.708,16.588,0.667,16,0.667s-1.166,0.041-1.737,0.105L12.707,5.15c-0.716,0.217-1.401,0.502-2.05,0.849L6.464,4.005C5.554,4.73,4.73,5.554,4.005,6.464l1.994,4.192c-0.347,0.648-0.632,1.334-0.849,2.05l-4.378,1.557C0.708,14.834,0.667,15.412,0.667,16s0.041,1.165,0.105,1.736l4.378,1.558c0.217,0.715,0.502,1.401,0.849,2.049l-1.994,4.193c0.725,0.909,1.549,1.733,2.459,2.458l4.192-1.993c0.648,0.347,1.334,0.633,2.05,0.851l1.557,4.377c0.571,0.064,1.148,0.104,1.737,0.104c0.588,0,1.165-0.04,1.736-0.104l1.558-4.377c0.715-0.218,1.399-0.504,2.049-0.851l4.193,1.993c0.909-0.725,1.733-1.549,2.458-2.458l-1.993-4.193c0.347-0.647,0.633-1.334,0.851-2.049L31.229,17.736zM16,20.871c-2.69,0-4.872-2.182-4.872-4.871c0-2.69,2.182-4.872,4.872-4.872c2.689,0,4.871,2.182,4.871,4.872C20.871,18.689,18.689,20.871,16,20.871z"></path><title>Link options.</title></g></g></g></g><g   id="j_355" ><path  stroke="#aaaaaa" d="M 687 1108 L 518 1408" id="v-4141" stroke-width="2" stroke-dasharray="30 30" fill="none" style="opacity: 1;"></path><path  fill="black" stroke="black" d="M 0 0 0 0" transform="matrix(-0.4908127069647382,0.8712651070035722,-0.8712651070035722,-0.4908127069647382,686.5,1108)"></path><path  fill="#aaaaaa" stroke="#aaaaaa" d="M 20 0 L 0 10 L 20 20 z" id="v-4143" transform="matrix(0.4908127069647385,-0.871265107003572,0.871265107003572,0.4908127069647385,508.7873639501606,1403.0918775160133)" style="opacity: 1;"></path><path  d="M 687 1108 L 518 1408" id="v-4142" fill="none" style="cursor: auto; pointer-events: visiblepainted;"></path><g ><g id="v-4135"  label-idx="0" cursor="move" transform="matrix(1,0,0,1,602.5,1258)" style="cursor: default; opacity: 1;"><rect joint-selector="rect" id="v-4138" fill="#111111" rx="3" ry="3" pointer-events="none" width="82.24041748046875" height="33.95733070373535" transform="matrix(1,0,0,1,-41.1,-17)"></rect><text joint-selector="text" id="v-4137" font-size="24px" xml:space="preserve" y="0.8em" fill="#aaaaaa" text-anchor="middle" pointer-events="none" font-family="Open Sans" font-weight="normal" transform="matrix(1,0,0,1,0,-9.8)"><tspan dy="0" >Proxies</tspan></text></g><g id="v-4136"  label-idx="1" cursor="move" transform="matrix(1,0,0,1,592.5,1285)" style="cursor: default; opacity: 1;"><rect joint-selector="rect" id="v-4140" fill="#ffffff" rx="3" ry="3"  width="0" height="0" transform="matrix(1,0,0,1,0,0)" display="none"></rect><text joint-selector="text" id="v-4139" fill="#000000" font-size="14" text-anchor="middle" pointer-events="none"></text></g></g><g  display="none" style="display: none;"></g><g  id="v-4145" display="none"><g  id="v-4133"><path  end="source" d="M 26 0 L 0 13 L 26 26 z"></path></g><g  id="v-4134"><path  end="target" d="M 26 0 L 0 13 L 26 26 z"></path></g></g><g  id="v-4144" display="none"><g  id="v-4132" transform="translate(667.3674926329228, 1142.8506047936282) "><g  event="remove"><circle r="11"></circle><path transform="scale(.8) translate(-16, -16)" d="M24.778,21.419 19.276,15.917 24.777,10.415 21.949,7.585 16.447,13.087 10.945,7.585 8.117,10.415 13.618,15.917 8.116,21.419 10.946,24.248 16.447,18.746 21.948,24.248z"></path><title>Remove link.</title></g><g  event="link:options"><circle r="11" transform="translate(25)"></circle><path fill="white" transform="scale(.55) translate(29, -16)" d="M31.229,17.736c0.064-0.571,0.104-1.148,0.104-1.736s-0.04-1.166-0.104-1.737l-4.377-1.557c-0.218-0.716-0.504-1.401-0.851-2.05l1.993-4.192c-0.725-0.91-1.549-1.734-2.458-2.459l-4.193,1.994c-0.647-0.347-1.334-0.632-2.049-0.849l-1.558-4.378C17.165,0.708,16.588,0.667,16,0.667s-1.166,0.041-1.737,0.105L12.707,5.15c-0.716,0.217-1.401,0.502-2.05,0.849L6.464,4.005C5.554,4.73,4.73,5.554,4.005,6.464l1.994,4.192c-0.347,0.648-0.632,1.334-0.849,2.05l-4.378,1.557C0.708,14.834,0.667,15.412,0.667,16s0.041,1.165,0.105,1.736l4.378,1.558c0.217,0.715,0.502,1.401,0.849,2.049l-1.994,4.193c0.725,0.909,1.549,1.733,2.459,2.458l4.192-1.993c0.648,0.347,1.334,0.633,2.05,0.851l1.557,4.377c0.571,0.064,1.148,0.104,1.737,0.104c0.588,0,1.165-0.04,1.736-0.104l1.558-4.377c0.715-0.218,1.399-0.504,2.049-0.851l4.193,1.993c0.909-0.725,1.733-1.549,2.458-2.458l-1.993-4.193c0.347-0.647,0.633-1.334,0.851-2.049L31.229,17.736zM16,20.871c-2.69,0-4.872-2.182-4.872-4.871c0-2.69,2.182-4.872,4.872-4.872c2.689,0,4.871,2.182,4.871,4.872C20.871,18.689,18.689,20.871,16,20.871z"></path><title>Link options.</title></g></g></g></g><g   id="j_356" ><path  stroke="#aaaaaa" d="M 1420 2308 L 1209 2608" id="v-4158" stroke-width="2" stroke-dasharray="30 30" fill="none" style="opacity: 1;"></path><path  fill="black" stroke="black" d="M 0 0 0 0" transform="matrix(-0.5743776572018754,0.8185904390519626,-0.8185904390519626,-0.5743776572018754,1419.75,2308)"></path><path  fill="#aaaaaa" stroke="#aaaaaa" d="M 20 0 L 0 10 L 20 20 z" id="v-4160" transform="matrix(0.5743776572018757,-0.8185904390519624,0.8185904390519624,0.5743776572018757,1201.064093451524,2602.256336802876)" style="opacity: 1;"></path><path  d="M 1420 2308 L 1209 2608" id="v-4159" fill="none" style="cursor: auto; pointer-events: visiblepainted;"></path><g ><g id="v-4152"  label-idx="0" cursor="move" transform="matrix(1,0,0,1,1314.5,2458)" style="cursor: default; opacity: 1;"><rect joint-selector="rect" id="v-4155" fill="#111111" rx="3" ry="3" pointer-events="none" width="198.85020446777344" height="62.75733184814453" transform="matrix(1,0,0,1,-99.2,-31.4)"></rect><text joint-selector="text" id="v-4154" font-size="24px" xml:space="preserve" y="0.8em" fill="#aaaaaa" text-anchor="middle" pointer-events="none" font-family="Open Sans" font-weight="normal" transform="matrix(1,0,0,1,0,-24.2)"><tspan dy="0" >Updates entities</tspan><tspan dy="1.2em" x="0" >and aggregates in</tspan></text></g><g id="v-4153"  label-idx="1" cursor="move" transform="matrix(1,0,0,1,1304.5,2500)" style="cursor: default; opacity: 1;"><rect joint-selector="rect" id="v-4157" fill="#ffffff" rx="3" ry="3"  width="0" height="0" transform="matrix(1,0,0,1,0,0)" display="none"></rect><text joint-selector="text" id="v-4156" fill="#000000" font-size="14" text-anchor="middle" pointer-events="none"></text></g></g><g  display="none" style="display: none;"></g><g  id="v-4162" display="none"><g  id="v-4150"><path  end="source" d="M 26 0 L 0 13 L 26 26 z"></path></g><g  id="v-4151"><path  end="target" d="M 26 0 L 0 13 L 26 26 z"></path></g></g><g  id="v-4161" display="none"><g  id="v-4149" transform="translate(1396.988368908024, 2340.717958898544) "><g  event="remove"><circle r="11"></circle><path transform="scale(.8) translate(-16, -16)" d="M24.778,21.419 19.276,15.917 24.777,10.415 21.949,7.585 16.447,13.087 10.945,7.585 8.117,10.415 13.618,15.917 8.116,21.419 10.946,24.248 16.447,18.746 21.948,24.248z"></path><title>Remove link.</title></g><g  event="link:options"><circle r="11" transform="translate(25)"></circle><path fill="white" transform="scale(.55) translate(29, -16)" d="M31.229,17.736c0.064-0.571,0.104-1.148,0.104-1.736s-0.04-1.166-0.104-1.737l-4.377-1.557c-0.218-0.716-0.504-1.401-0.851-2.05l1.993-4.192c-0.725-0.91-1.549-1.734-2.458-2.459l-4.193,1.994c-0.647-0.347-1.334-0.632-2.049-0.849l-1.558-4.378C17.165,0.708,16.588,0.667,16,0.667s-1.166,0.041-1.737,0.105L12.707,5.15c-0.716,0.217-1.401,0.502-2.05,0.849L6.464,4.005C5.554,4.73,4.73,5.554,4.005,6.464l1.994,4.192c-0.347,0.648-0.632,1.334-0.849,2.05l-4.378,1.557C0.708,14.834,0.667,15.412,0.667,16s0.041,1.165,0.105,1.736l4.378,1.558c0.217,0.715,0.502,1.401,0.849,2.049l-1.994,4.193c0.725,0.909,1.549,1.733,2.459,2.458l4.192-1.993c0.648,0.347,1.334,0.633,2.05,0.851l1.557,4.377c0.571,0.064,1.148,0.104,1.737,0.104c0.588,0,1.165-0.04,1.736-0.104l1.558-4.377c0.715-0.218,1.399-0.504,2.049-0.851l4.193,1.993c0.909-0.725,1.733-1.549,2.458-2.458l-1.993-4.193c0.347-0.647,0.633-1.334,0.851-2.049L31.229,17.736zM16,20.871c-2.69,0-4.872-2.182-4.872-4.871c0-2.69,2.182-4.872,4.872-4.872c2.689,0,4.871,2.182,4.871,4.872C20.871,18.689,18.689,20.871,16,20.871z"></path><title>Link options.</title></g></g></g></g><g   id="j_357" ><path  stroke="#aaaaaa" d="M 1690 2308 L 2019 2608" id="v-4175" stroke-width="2" stroke-dasharray="30 30" fill="none" style="opacity: 1;"></path><path  fill="black" stroke="black" d="M 0 0 0 0" transform="matrix(0.7389229445543876,0.6737899390841878,-0.6737899390841878,0.7389229445543876,1689.5,2308)"></path><path  fill="#aaaaaa" stroke="#aaaaaa" d="M 20 0 L 0 10 L 20 20 z" id="v-4177" transform="matrix(-0.7389230342749382,-0.6737898406906402,0.6737898406906402,-0.7389230342749382,2011.7620497092805,2615.3893357809056)" style="opacity: 1;"></path><path  d="M 1690 2308 L 2019 2608" id="v-4176" fill="none" style="cursor: auto; pointer-events: visiblepainted;"></path><g ><g id="v-4169"  label-idx="0" cursor="move" transform="matrix(1,0,0,1,1854.5,2458)" style="cursor: default; opacity: 1;"><rect joint-selector="rect" id="v-4172" fill="#111111" rx="3" ry="3" pointer-events="none" width="150.82211303710938" height="62.75733184814453" transform="matrix(1,0,0,1,-75.1,-31.4)"></rect><text joint-selector="text" id="v-4171" font-size="24px" xml:space="preserve" y="0.8em" fill="#aaaaaa" text-anchor="middle" pointer-events="none" font-family="Open Sans" font-weight="normal" transform="matrix(1,0,0,1,0,-24.2)"><tspan dy="0" >Subscribes to</tspan><tspan dy="1.2em" x="0" >updates</tspan></text></g><g id="v-4170"  label-idx="1" cursor="move" transform="matrix(1,0,0,1,1844.5,2500)" style="cursor: default; opacity: 1;"><rect joint-selector="rect" id="v-4174" fill="#ffffff" rx="3" ry="3"  width="0" height="0" transform="matrix(1,0,0,1,0,0)" display="none"></rect><text joint-selector="text" id="v-4173" fill="#000000" font-size="14" text-anchor="middle" pointer-events="none"></text></g></g><g  display="none" style="display: none;"></g><g  id="v-4179" display="none"><g  id="v-4167"><path  end="source" d="M 26 0 L 0 13 L 26 26 z"></path></g><g  id="v-4168"><path  end="target" d="M 26 0 L 0 13 L 26 26 z"></path></g></g><g  id="v-4178" display="none"><g  id="v-4166" transform="translate(1719.556918181228, 2334.9515971257397) "><g  event="remove"><circle r="11"></circle><path transform="scale(.8) translate(-16, -16)" d="M24.778,21.419 19.276,15.917 24.777,10.415 21.949,7.585 16.447,13.087 10.945,7.585 8.117,10.415 13.618,15.917 8.116,21.419 10.946,24.248 16.447,18.746 21.948,24.248z"></path><title>Remove link.</title></g><g  event="link:options"><circle r="11" transform="translate(25)"></circle><path fill="white" transform="scale(.55) translate(29, -16)" d="M31.229,17.736c0.064-0.571,0.104-1.148,0.104-1.736s-0.04-1.166-0.104-1.737l-4.377-1.557c-0.218-0.716-0.504-1.401-0.851-2.05l1.993-4.192c-0.725-0.91-1.549-1.734-2.458-2.459l-4.193,1.994c-0.647-0.347-1.334-0.632-2.049-0.849l-1.558-4.378C17.165,0.708,16.588,0.667,16,0.667s-1.166,0.041-1.737,0.105L12.707,5.15c-0.716,0.217-1.401,0.502-2.05,0.849L6.464,4.005C5.554,4.73,4.73,5.554,4.005,6.464l1.994,4.192c-0.347,0.648-0.632,1.334-0.849,2.05l-4.378,1.557C0.708,14.834,0.667,15.412,0.667,16s0.041,1.165,0.105,1.736l4.378,1.558c0.217,0.715,0.502,1.401,0.849,2.049l-1.994,4.193c0.725,0.909,1.549,1.733,2.459,2.458l4.192-1.993c0.648,0.347,1.334,0.633,2.05,0.851l1.557,4.377c0.571,0.064,1.148,0.104,1.737,0.104c0.588,0,1.165-0.04,1.736-0.104l1.558-4.377c0.715-0.218,1.399-0.504,2.049-0.851l4.193,1.993c0.909-0.725,1.733-1.549,2.458-2.458l-1.993-4.193c0.347-0.647,0.633-1.334,0.851-2.049L31.229,17.736zM16,20.871c-2.69,0-4.872-2.182-4.872-4.871c0-2.69,2.182-4.872,4.872-4.872c2.689,0,4.871,2.182,4.871,4.872C20.871,18.689,18.689,20.871,16,20.871z"></path><title>Link options.</title></g></g></g></g></g><g ></g><g ></g><g ></g></g></svg>