<svg xmlns="http://www.w3.org/2000/svg" xmlns:xlink="http://www.w3.org/1999/xlink" version="1.1" viewBox="0 0 2720 2758" style="background: #111111"><defs joint-selector="defs"></defs><g joint-selector="layers"  transform="matrix(1,0,0,1,0,0)"><g ></g><g ><g   id="j_342"  transform="translate(20,2713)"><g id="v-3987"><text  id="v-3988" font-size="22px" xml:space="preserve" y="0.8em" font-weight="normal" text-anchor="start" fill="#777777" pointer-events="none" font-family="Open Sans"><tspan dy="0" >Saturday, September 16, 2023 at 11:11 PM Eastern Daylight Time</tspan></text></g></g><g   id="j_341"  transform="translate(20,2669)"><g id="v-3985"><text  id="v-3986" font-size="36px" xml:space="preserve" y="0.8em" font-weight="normal" text-anchor="start" fill="#bbbbbb" pointer-events="none" font-family="Open Sans"><tspan dy="0" >[System Context] Trip Management</tspan></text></g></g><g   id="j_327"  transform="translate(525,309)" style=""><g id="v-3792"><rect  id="v-3793" width="582" height="2194" rx="0" ry="0" fill="#111111" stroke="#cccccc" stroke-width="1" stroke-dasharray="5,5" pointer-events="none"></rect><text  id="v-3794" font-size="24px" xml:space="preserve" y="2179" font-weight="normal" fill="#cccccc" text-anchor="start" pointer-events="visible" font-family="Open Sans" transform="matrix(1,0,0,1,15,0)"><tspan dy="0" >The Road Warrior</tspan></text><text  id="v-3795" font-size="17px" xml:space="preserve" display="none" y="2179" font-weight="normal" fill="#cccccc" text-anchor="start" pointer-events="visible" font-family="Open Sans" transform="matrix(1,0,0,1,15,0)"><tspan dy="0" style="fill-opacity: 0; stroke-opacity: 0;" >-</tspan></text><image  id="v-3796" pointer-events="visible"></image></g></g><g   id="j_326"  transform="translate(591,1529)" style=""><g  id="v-3785" style="opacity: 1;"><rect  id="v-3786" rx="20" ry="20" stroke="#0f5eaa" stroke-width="2" pointer-events="visiblePainted" fill="#1168bd" width="450" height="300" style="fill: rgb(17, 104, 189); stroke: rgb(15, 94, 170);"></rect><text  id="v-3787" font-size="34" xml:space="preserve" y="0.8em" font-weight="bold" text-anchor="middle" pointer-events="visible" font-family="Open Sans" fill="#ffffff" transform="matrix(1,0,0,1,225,98.1)" style="fill: rgb(255, 255, 255);"><tspan dy="0" >Trip Management</tspan></text><text  id="v-3788" font-size="17" xml:space="preserve" y="0.8em" text-anchor="middle" font-family="Open Sans" fill="#ffffff" transform="matrix(1,0,0,1,225,140.6)" style="fill: rgb(255, 255, 255);"><tspan dy="0" >[Software System]</tspan></text><text  id="v-3789" font-size="24" xml:space="preserve" y="0.8em" text-anchor="middle" font-family="Open Sans" fill="#ffffff" transform="matrix(1,0,0,1,225,171.9)" style="fill: rgb(255, 255, 255);"><tspan dy="0" >Core</tspan></text><g  id="v-3790" color="#ffffff" transform="matrix(1,0,0,1,210,211.9)" display="none" style="fill: rgb(255, 255, 255);"><g  transform="translate(5 0)"><svg xmlns="http://www.w3.org/2000/svg" width="20" height="20" fill="currentColor" viewBox="0 0 16 16"><path fill-rule="evenodd" d="M6.5 12a5.5 5.5 0 1 0 0-11 5.5 5.5 0 0 0 0 11zM13 6.5a6.5 6.5 0 1 1-13 0 6.5 6.5 0 0 1 13 0z"></path><path d="M10.344 11.742c.03.04.062.078.098.115l3.85 3.85a1 1 0 0 0 1.415-1.414l-3.85-3.85a1.007 1.007 0 0 0-.115-.1 6.538 6.538 0 0 1-1.398 1.4z"></path><path fill-rule="evenodd" d="M6.5 3a.5.5 0 0 1 .5.5V6h2.5a.5.5 0 0 1 0 1H7v2.5a.5.5 0 0 1-1 0V7H3.5a.5.5 0 0 1 0-1H6V3.5a.5.5 0 0 1 .5-.5z"></path></svg></g><g ></g><g ></g><g ></g></g><image  id="v-3791"></image></g></g><g   id="j_328"  transform="translate(637,929)" style=""><g  id="v-3800" style="opacity: 1;"><rect  id="v-3801" rx="20" ry="20" stroke="#0f5eaa" stroke-width="2" pointer-events="visiblePainted" fill="#1168bd" width="450" height="300" style="fill: rgb(17, 104, 189); stroke: rgb(15, 94, 170);"></rect><text  id="v-3802" font-size="34" xml:space="preserve" y="0.8em" font-weight="bold" text-anchor="middle" pointer-events="visible" font-family="Open Sans" fill="#ffffff" transform="matrix(1,0,0,1,225,113.1)" style="fill: rgb(255, 255, 255);"><tspan dy="0" >Email Processing</tspan></text><text  id="v-3803" font-size="17" xml:space="preserve" y="0.8em" text-anchor="middle" font-family="Open Sans" fill="#ffffff" transform="matrix(1,0,0,1,225,155.6)" style="fill: rgb(255, 255, 255);"><tspan dy="0" >[Software System]</tspan></text><text  id="v-3804" font-size="24" xml:space="preserve" display="none" y="0.8em" text-anchor="middle" font-family="Open Sans" fill="#ffffff" transform="matrix(1,0,0,1,225,186.9)" style="fill: rgb(255, 255, 255);"><tspan dy="0" style="fill-opacity: 0; stroke-opacity: 0;" >-</tspan></text><g  id="v-3805" color="#ffffff" transform="matrix(1,0,0,1,210,196.9)" display="none" style="fill: rgb(255, 255, 255);"><g  transform="translate(5 0)"><svg xmlns="http://www.w3.org/2000/svg" width="20" height="20" fill="currentColor" viewBox="0 0 16 16"><path fill-rule="evenodd" d="M6.5 12a5.5 5.5 0 1 0 0-11 5.5 5.5 0 0 0 0 11zM13 6.5a6.5 6.5 0 1 1-13 0 6.5 6.5 0 0 1 13 0z"></path><path d="M10.344 11.742c.03.04.062.078.098.115l3.85 3.85a1 1 0 0 0 1.415-1.414l-3.85-3.85a1.007 1.007 0 0 0-.115-.1 6.538 6.538 0 0 1-1.398 1.4z"></path><path fill-rule="evenodd" d="M6.5 3a.5.5 0 0 1 .5.5V6h2.5a.5.5 0 0 1 0 1H7v2.5a.5.5 0 0 1-1 0V7H3.5a.5.5 0 0 1 0-1H6V3.5a.5.5 0 0 1 .5-.5z"></path></svg></g><g ></g><g ></g><g ></g></g><image  id="v-3806"></image></g></g><g   id="j_330"  transform="translate(545,2129)" style=""><g  id="v-3820" style="opacity: 1;"><rect  id="v-3821" rx="20" ry="20" stroke="#0f5eaa" stroke-width="2" pointer-events="visiblePainted" fill="#1168bd" width="450" height="300" style="fill: rgb(17, 104, 189); stroke: rgb(15, 94, 170);"></rect><text  id="v-3822" font-size="34" xml:space="preserve" y="0.8em" font-weight="bold" text-anchor="middle" pointer-events="visible" font-family="Open Sans" fill="#ffffff" transform="matrix(1,0,0,1,225,53.1)" style="fill: rgb(255, 255, 255);"><tspan dy="0" >Realtime Tracking</tspan></text><text  id="v-3823" font-size="17" xml:space="preserve" y="0.8em" text-anchor="middle" font-family="Open Sans" fill="#ffffff" transform="matrix(1,0,0,1,225,95.6)" style="fill: rgb(255, 255, 255);"><tspan dy="0" >[Software System]</tspan></text><text  id="v-3824" font-size="24" xml:space="preserve" y="0.8em" text-anchor="middle" font-family="Open Sans" fill="#ffffff" transform="matrix(1,0,0,1,225,126.9)" style="fill: rgb(255, 255, 255);"><tspan dy="0" >Responsible for polling and listening</tspan><tspan dy="1.2em" x="0" >to changes in services and</tspan><tspan dy="1.2em" x="0" >bookings, and notifying the</tspan><tspan dy="1.2em" x="0" >travelers and observers</tspan></text><g  id="v-3825" color="#ffffff" transform="matrix(1,0,0,1,210,256.9)" display="none" style="fill: rgb(255, 255, 255);"><g  transform="translate(5 0)"><svg xmlns="http://www.w3.org/2000/svg" width="20" height="20" fill="currentColor" viewBox="0 0 16 16"><path fill-rule="evenodd" d="M6.5 12a5.5 5.5 0 1 0 0-11 5.5 5.5 0 0 0 0 11zM13 6.5a6.5 6.5 0 1 1-13 0 6.5 6.5 0 0 1 13 0z"></path><path d="M10.344 11.742c.03.04.062.078.098.115l3.85 3.85a1 1 0 0 0 1.415-1.414l-3.85-3.85a1.007 1.007 0 0 0-.115-.1 6.538 6.538 0 0 1-1.398 1.4z"></path><path fill-rule="evenodd" d="M6.5 3a.5.5 0 0 1 .5.5V6h2.5a.5.5 0 0 1 0 1H7v2.5a.5.5 0 0 1-1 0V7H3.5a.5.5 0 0 1 0-1H6V3.5a.5.5 0 0 1 .5-.5z"></path></svg></g><g ></g><g ></g><g ></g></g><image  id="v-3826"></image></g></g><g   id="j_332"  transform="translate(637,329)" style=""><g  id="v-3840" style="opacity: 1;"><rect  id="v-3841" rx="20" ry="20" stroke="#0f5eaa" stroke-width="2" pointer-events="visiblePainted" fill="#1168bd" width="450" height="300" style="fill: rgb(17, 104, 189); stroke: rgb(15, 94, 170);"></rect><text  id="v-3842" font-size="34" xml:space="preserve" y="0.8em" font-weight="bold" text-anchor="middle" pointer-events="visible" font-family="Open Sans" fill="#ffffff" transform="matrix(1,0,0,1,225,113.1)" style="fill: rgb(255, 255, 255);"><tspan dy="0" >Load Balancer</tspan></text><text  id="v-3843" font-size="17" xml:space="preserve" y="0.8em" text-anchor="middle" font-family="Open Sans" fill="#ffffff" transform="matrix(1,0,0,1,225,155.6)" style="fill: rgb(255, 255, 255);"><tspan dy="0" >[Software System]</tspan></text><text  id="v-3844" font-size="24" xml:space="preserve" display="none" y="0.8em" text-anchor="middle" font-family="Open Sans" fill="#ffffff" transform="matrix(1,0,0,1,225,186.9)" style="fill: rgb(255, 255, 255);"><tspan dy="0" style="fill-opacity: 0; stroke-opacity: 0;" >-</tspan></text><g  id="v-3845" color="#ffffff" transform="matrix(1,0,0,1,222.5,196.9)" display="none" style="fill: rgb(255, 255, 255);"><g ></g><g ></g><g ></g><g ></g></g><image  id="v-3846"></image></g></g><g   id="j_329"  transform="translate(1295,2129)" style=""><g  id="v-3807" style="opacity: 1;"><rect  id="v-3808" rx="20" ry="20" stroke="#737373" stroke-width="2" pointer-events="visiblePainted" fill="#808080" width="450" height="300" style="fill: rgb(128, 128, 128); stroke: rgb(115, 115, 115);"></rect><text  id="v-3809" font-size="34" xml:space="preserve" y="0.8em" font-weight="bold" text-anchor="middle" pointer-events="visible" font-family="Open Sans" fill="#ffffff" transform="matrix(1,0,0,1,225,113.1)" style="fill: rgb(255, 255, 255);"><tspan dy="0" >GDS Platform</tspan></text><text  id="v-3810" font-size="17" xml:space="preserve" y="0.8em" text-anchor="middle" font-family="Open Sans" fill="#ffffff" transform="matrix(1,0,0,1,225,155.6)" style="fill: rgb(255, 255, 255);"><tspan dy="0" >[Software System]</tspan></text><text  id="v-3811" font-size="24" xml:space="preserve" display="none" y="0.8em" text-anchor="middle" font-family="Open Sans" fill="#ffffff" transform="matrix(1,0,0,1,225,186.9)" style="fill: rgb(255, 255, 255);"><tspan dy="0" style="fill-opacity: 0; stroke-opacity: 0;" >-</tspan></text><g  id="v-3812" color="#ffffff" transform="matrix(1,0,0,1,222.5,196.9)" display="none" style="fill: rgb(255, 255, 255);"><g ></g><g ></g><g ></g><g ></g></g><image  id="v-3813"></image></g></g><g   id="j_331"  transform="translate(2045,2129)" style=""><g  id="v-3833" style="opacity: 1;"><rect  id="v-3834" rx="20" ry="20" stroke="#737373" stroke-width="2" pointer-events="visiblePainted" fill="#808080" width="450" height="300" style="fill: rgb(128, 128, 128); stroke: rgb(115, 115, 115);"></rect><text  id="v-3835" font-size="34" xml:space="preserve" y="0.8em" font-weight="bold" text-anchor="middle" pointer-events="visible" font-family="Open Sans" fill="#ffffff" transform="matrix(1,0,0,1,225,68.1)" style="fill: rgb(255, 255, 255);"><tspan dy="0" >Service Provider System</tspan></text><text  id="v-3836" font-size="17" xml:space="preserve" y="0.8em" text-anchor="middle" font-family="Open Sans" fill="#ffffff" transform="matrix(1,0,0,1,225,110.6)" style="fill: rgb(255, 255, 255);"><tspan dy="0" >[Software System]</tspan></text><text  id="v-3837" font-size="24" xml:space="preserve" y="0.8em" text-anchor="middle" font-family="Open Sans" fill="#ffffff" transform="matrix(1,0,0,1,225,141.9)" style="fill: rgb(255, 255, 255);"><tspan dy="0" >For tracking updates in flight</tspan><tspan dy="1.2em" x="0" >schedules, agency bookings, car</tspan><tspan dy="1.2em" x="0" >rentals, etc</tspan></text><g  id="v-3838" color="#ffffff" transform="matrix(1,0,0,1,222.5,241.9)" display="none" style="fill: rgb(255, 255, 255);"><g ></g><g ></g><g ></g><g ></g></g><image  id="v-3839"></image></g></g><g   id="j_333" ><path  stroke="#aaaaaa" d="M 860 2129 L 937 1999 C 940.7074003579157 1993.3109006941067 941.3740670245825 1987.3109006941067 939 1981 L 877 1829" id="v-3860" stroke-width="2" stroke-dasharray="30 30" fill="none" style="opacity: 1;"></path><path  fill="black" stroke="black" d="M 0 0 0 0" transform="matrix(0.5132696573261463,-0.8582273934501858,0.8582273934501858,0.5132696573261463,859.7100219726562,2129)"></path><path  fill="#aaaaaa" stroke="#aaaaaa" d="M 20 0 L 0 10 L 20 20 z" id="v-3862" transform="matrix(0.37645284042362875,0.9264357824139683,-0.9264357824139683,0.37645284042362875,886.2143679941222,1825.235518068499)" style="opacity: 1;"></path><path  d="M 860 2129 L 937 1999 C 940.7074003579157 1993.3109006941067 941.3740670245825 1987.3109006941067 939 1981 L 877 1829" id="v-3861" fill="none" style="cursor: auto; pointer-events: visiblepainted;"></path><g ><g id="v-3854"  label-idx="0" cursor="move" transform="matrix(1,0,0,1,939.8475341796875,1983.7532958984375)" style="cursor: default; opacity: 1;"><rect joint-selector="rect" id="v-3857" fill="#111111" rx="3" ry="3" pointer-events="none" width="151.79017639160156" height="61.11688232421875" transform="matrix(1,0,0,1,-75,-30.6)"></rect><text joint-selector="text" id="v-3856" font-size="24px" xml:space="preserve" y="0.8em" fill="#aaaaaa" text-anchor="middle" pointer-events="none" font-family="Open Sans" font-weight="normal" transform="matrix(1,0,0,1,0,-23.9)"><tspan dy="0" >Subscribes to</tspan><tspan dy="1.2em" x="0" >updates</tspan></text></g><g id="v-3855"  label-idx="1" cursor="move" transform="matrix(1,0,0,1,929.8475341796875,2025.7532958984375)" style="cursor: default; opacity: 1;"><rect joint-selector="rect" id="v-3859" fill="#ffffff" rx="3" ry="3"  width="0" height="0" transform="matrix(1,0,0,1,0,0)" display="none"></rect><text joint-selector="text" id="v-3858" fill="#000000" font-size="14" text-anchor="middle" pointer-events="none"></text></g></g><g  display="none" style="display: none;"><g  transform="translate(942.5611005368738, 1990.4663510411604)" id="v-3851"><circle  idx="0" r="10"></circle><path  idx="0" d="M16,5.333c-7.732,0-14,4.701-14,10.5c0,1.982,0.741,3.833,2.016,5.414L2,25.667l5.613-1.441c2.339,1.317,5.237,2.107,8.387,2.107c7.732,0,14-4.701,14-10.5C30,10.034,23.732,5.333,16,5.333z" transform="translate(5, -33)"></path><path  idx="0" transform="scale(.8) translate(9.5, -37)" d="M24.778,21.419 19.276,15.917 24.777,10.415 21.949,7.585 16.447,13.087 10.945,7.585 8.117,10.415 13.618,15.917 8.116,21.419 10.946,24.248 16.447,18.746 21.948,24.248z"><title>Remove vertex.</title></path></g></g><g  id="v-3864" display="none"><g  id="v-3852"><path  end="source" d="M 26 0 L 0 13 L 26 26 z"></path></g><g  id="v-3853"><path  end="target" d="M 26 0 L 0 13 L 26 26 z"></path></g></g><g  id="v-3863" display="none"><g  id="v-3850" transform="translate(880.38483837657, 2094.584039104492) "><g  event="remove"><circle r="11"></circle><path transform="scale(.8) translate(-16, -16)" d="M24.778,21.419 19.276,15.917 24.777,10.415 21.949,7.585 16.447,13.087 10.945,7.585 8.117,10.415 13.618,15.917 8.116,21.419 10.946,24.248 16.447,18.746 21.948,24.248z"></path><title>Remove link.</title></g><g  event="link:options"><circle r="11" transform="translate(25)"></circle><path fill="white" transform="scale(.55) translate(29, -16)" d="M31.229,17.736c0.064-0.571,0.104-1.148,0.104-1.736s-0.04-1.166-0.104-1.737l-4.377-1.557c-0.218-0.716-0.504-1.401-0.851-2.05l1.993-4.192c-0.725-0.91-1.549-1.734-2.458-2.459l-4.193,1.994c-0.647-0.347-1.334-0.632-2.049-0.849l-1.558-4.378C17.165,0.708,16.588,0.667,16,0.667s-1.166,0.041-1.737,0.105L12.707,5.15c-0.716,0.217-1.401,0.502-2.05,0.849L6.464,4.005C5.554,4.73,4.73,5.554,4.005,6.464l1.994,4.192c-0.347,0.648-0.632,1.334-0.849,2.05l-4.378,1.557C0.708,14.834,0.667,15.412,0.667,16s0.041,1.165,0.105,1.736l4.378,1.558c0.217,0.715,0.502,1.401,0.849,2.049l-1.994,4.193c0.725,0.909,1.549,1.733,2.459,2.458l4.192-1.993c0.648,0.347,1.334,0.633,2.05,0.851l1.557,4.377c0.571,0.064,1.148,0.104,1.737,0.104c0.588,0,1.165-0.04,1.736-0.104l1.558-4.377c0.715-0.218,1.399-0.504,2.049-0.851l4.193,1.993c0.909-0.725,1.733-1.549,2.458-2.458l-1.993-4.193c0.347-0.647,0.633-1.334,0.851-2.049L31.229,17.736zM16,20.871c-2.69,0-4.872-2.182-4.872-4.871c0-2.69,2.182-4.872,4.872-4.872c2.689,0,4.871,2.182,4.871,4.872C20.871,18.689,18.689,20.871,16,20.871z"></path><title>Link options.</title></g></g></g></g><g   id="j_334" ><path  stroke="#aaaaaa" d="M 851 1229 L 828 1529" id="v-3877" stroke-width="2" stroke-dasharray="30 30" fill="none" style="opacity: 1;"></path><path  fill="black" stroke="black" d="M 0 0 0 0" transform="matrix(-0.07644236820985931,0.99707400143744,-0.99707400143744,-0.07644236820985931,850.5,1229)"></path><path  fill="#aaaaaa" stroke="#aaaaaa" d="M 20 0 L 0 10 L 20 20 z" id="v-3879" transform="matrix(0.07644223544142398,-0.9970740116163482,0.9970740116163482,0.07644223544142398,817.5292418262973,1528.2356146367492)" style="opacity: 1;"></path><path  d="M 851 1229 L 828 1529" id="v-3878" fill="none" style="cursor: auto; pointer-events: visiblepainted;"></path><g ><g id="v-3871"  label-idx="0" cursor="move" transform="matrix(1,0,0,1,839.5,1379)" style="cursor: default; opacity: 1;"><rect joint-selector="rect" id="v-3874" fill="#111111" rx="3" ry="3" pointer-events="none" width="144.27349853515625" height="61.11688232421875" transform="matrix(1,0,0,1,-71.8,-30.6)"></rect><text joint-selector="text" id="v-3873" font-size="24px" xml:space="preserve" y="0.8em" fill="#aaaaaa" text-anchor="middle" pointer-events="none" font-family="Open Sans" font-weight="normal" transform="matrix(1,0,0,1,0,-23.9)"><tspan dy="0" >Reports New</tspan><tspan dy="1.2em" x="0" >Booking</tspan></text></g><g id="v-3872"  label-idx="1" cursor="move" transform="matrix(1,0,0,1,829.5,1421)" style="cursor: default; opacity: 1;"><rect joint-selector="rect" id="v-3876" fill="#ffffff" rx="3" ry="3"  width="0" height="0" transform="matrix(1,0,0,1,0,0)" display="none"></rect><text joint-selector="text" id="v-3875" fill="#000000" font-size="14" text-anchor="middle" pointer-events="none"></text></g></g><g  display="none" style="display: none;"></g><g  id="v-3881" display="none"><g  id="v-3869"><path  end="source" d="M 26 0 L 0 13 L 26 26 z"></path></g><g  id="v-3870"><path  end="target" d="M 26 0 L 0 13 L 26 26 z"></path></g></g><g  id="v-3880" display="none"><g  id="v-3868" transform="translate(847.9423063890239, 1268.8829601431664) "><g  event="remove"><circle r="11"></circle><path transform="scale(.8) translate(-16, -16)" d="M24.778,21.419 19.276,15.917 24.777,10.415 21.949,7.585 16.447,13.087 10.945,7.585 8.117,10.415 13.618,15.917 8.116,21.419 10.946,24.248 16.447,18.746 21.948,24.248z"></path><title>Remove link.</title></g><g  event="link:options"><circle r="11" transform="translate(25)"></circle><path fill="white" transform="scale(.55) translate(29, -16)" d="M31.229,17.736c0.064-0.571,0.104-1.148,0.104-1.736s-0.04-1.166-0.104-1.737l-4.377-1.557c-0.218-0.716-0.504-1.401-0.851-2.05l1.993-4.192c-0.725-0.91-1.549-1.734-2.458-2.459l-4.193,1.994c-0.647-0.347-1.334-0.632-2.049-0.849l-1.558-4.378C17.165,0.708,16.588,0.667,16,0.667s-1.166,0.041-1.737,0.105L12.707,5.15c-0.716,0.217-1.401,0.502-2.05,0.849L6.464,4.005C5.554,4.73,4.73,5.554,4.005,6.464l1.994,4.192c-0.347,0.648-0.632,1.334-0.849,2.05l-4.378,1.557C0.708,14.834,0.667,15.412,0.667,16s0.041,1.165,0.105,1.736l4.378,1.558c0.217,0.715,0.502,1.401,0.849,2.049l-1.994,4.193c0.725,0.909,1.549,1.733,2.459,2.458l4.192-1.993c0.648,0.347,1.334,0.633,2.05,0.851l1.557,4.377c0.571,0.064,1.148,0.104,1.737,0.104c0.588,0,1.165-0.04,1.736-0.104l1.558-4.377c0.715-0.218,1.399-0.504,2.049-0.851l4.193,1.993c0.909-0.725,1.733-1.549,2.458-2.458l-1.993-4.193c0.347-0.647,0.633-1.334,0.851-2.049L31.229,17.736zM16,20.871c-2.69,0-4.872-2.182-4.872-4.871c0-2.69,2.182-4.872,4.872-4.872c2.689,0,4.871,2.182,4.871,4.872C20.871,18.689,18.689,20.871,16,20.871z"></path><title>Link options.</title></g></g></g></g><g   id="j_335" ><path  stroke="#aaaaaa" d="M 726 1829 L 649 1959 C 645.292599642084 1964.689099305893 644.6259329754174 1970.689099305893 647 1977 L 709 2129" id="v-3895" stroke-width="2" stroke-dasharray="30 30" fill="none" style="opacity: 1;"></path><path  fill="black" stroke="black" d="M 0 0 0 0" transform="matrix(-0.5132694287663476,0.8582275301421337,-0.8582275301421337,-0.5132694287663476,726.2899780273438,1829)"></path><path  fill="#aaaaaa" stroke="#aaaaaa" d="M 20 0 L 0 10 L 20 20 z" id="v-3897" transform="matrix(-0.37645284042362903,-0.9264357824139682,0.9264357824139682,-0.37645284042362903,699.7856320058778,2132.764481931501)" style="opacity: 1;"></path><path  d="M 726 1829 L 649 1959 C 645.292599642084 1964.689099305893 644.6259329754174 1970.689099305893 647 1977 L 709 2129" id="v-3896" fill="none" style="cursor: auto; pointer-events: visiblepainted;"></path><g ><g id="v-3889"  label-idx="0" cursor="move" transform="matrix(1,0,0,1,646.1524658203125,1974.2467041015625)" style="cursor: default; opacity: 1;"><rect joint-selector="rect" id="v-3892" fill="#111111" rx="3" ry="3" pointer-events="none" width="151.79017639160156" height="61.11688232421875" transform="matrix(1,0,0,1,-75,-30.6)"></rect><text joint-selector="text" id="v-3891" font-size="24px" xml:space="preserve" y="0.8em" fill="#aaaaaa" text-anchor="middle" pointer-events="none" font-family="Open Sans" font-weight="normal" transform="matrix(1,0,0,1,0,-23.9)"><tspan dy="0" >Subscribes to</tspan><tspan dy="1.2em" x="0" >update</tspan></text></g><g id="v-3890"  label-idx="1" cursor="move" transform="matrix(1,0,0,1,636.1524658203125,2016.2467041015625)" style="cursor: default; opacity: 1;"><rect joint-selector="rect" id="v-3894" fill="#ffffff" rx="3" ry="3"  width="0" height="0" transform="matrix(1,0,0,1,0,0)" display="none"></rect><text joint-selector="text" id="v-3893" fill="#000000" font-size="14" text-anchor="middle" pointer-events="none"></text></g></g><g  display="none" style="display: none;"><g  transform="translate(643.4388994631262, 1967.5336489588396)" id="v-3886"><circle  idx="0" r="10"></circle><path  idx="0" d="M16,5.333c-7.732,0-14,4.701-14,10.5c0,1.982,0.741,3.833,2.016,5.414L2,25.667l5.613-1.441c2.339,1.317,5.237,2.107,8.387,2.107c7.732,0,14-4.701,14-10.5C30,10.034,23.732,5.333,16,5.333z" transform="translate(5, -33)"></path><path  idx="0" transform="scale(.8) translate(9.5, -37)" d="M24.778,21.419 19.276,15.917 24.777,10.415 21.949,7.585 16.447,13.087 10.945,7.585 8.117,10.415 13.618,15.917 8.116,21.419 10.946,24.248 16.447,18.746 21.948,24.248z"><title>Remove vertex.</title></path></g></g><g  id="v-3899" display="none"><g  id="v-3887"><path  end="source" d="M 26 0 L 0 13 L 26 26 z"></path></g><g  id="v-3888"><path  end="target" d="M 26 0 L 0 13 L 26 26 z"></path></g></g><g  id="v-3898" display="none"><g  id="v-3885" transform="translate(705.61516162343, 1863.4159608955079) "><g  event="remove"><circle r="11"></circle><path transform="scale(.8) translate(-16, -16)" d="M24.778,21.419 19.276,15.917 24.777,10.415 21.949,7.585 16.447,13.087 10.945,7.585 8.117,10.415 13.618,15.917 8.116,21.419 10.946,24.248 16.447,18.746 21.948,24.248z"></path><title>Remove link.</title></g><g  event="link:options"><circle r="11" transform="translate(25)"></circle><path fill="white" transform="scale(.55) translate(29, -16)" d="M31.229,17.736c0.064-0.571,0.104-1.148,0.104-1.736s-0.04-1.166-0.104-1.737l-4.377-1.557c-0.218-0.716-0.504-1.401-0.851-2.05l1.993-4.192c-0.725-0.91-1.549-1.734-2.458-2.459l-4.193,1.994c-0.647-0.347-1.334-0.632-2.049-0.849l-1.558-4.378C17.165,0.708,16.588,0.667,16,0.667s-1.166,0.041-1.737,0.105L12.707,5.15c-0.716,0.217-1.401,0.502-2.05,0.849L6.464,4.005C5.554,4.73,4.73,5.554,4.005,6.464l1.994,4.192c-0.347,0.648-0.632,1.334-0.849,2.05l-4.378,1.557C0.708,14.834,0.667,15.412,0.667,16s0.041,1.165,0.105,1.736l4.378,1.558c0.217,0.715,0.502,1.401,0.849,2.049l-1.994,4.193c0.725,0.909,1.549,1.733,2.459,2.458l4.192-1.993c0.648,0.347,1.334,0.633,2.05,0.851l1.557,4.377c0.571,0.064,1.148,0.104,1.737,0.104c0.588,0,1.165-0.04,1.736-0.104l1.558-4.377c0.715-0.218,1.399-0.504,2.049-0.851l4.193,1.993c0.909-0.725,1.733-1.549,2.458-2.458l-1.993-4.193c0.347-0.647,0.633-1.334,0.851-2.049L31.229,17.736zM16,20.871c-2.69,0-4.872-2.182-4.872-4.871c0-2.69,2.182-4.872,4.872-4.872c2.689,0,4.871,2.182,4.871,4.872C20.871,18.689,18.689,20.871,16,20.871z"></path><title>Link options.</title></g></g></g></g><g   id="j_336" ><path  stroke="#aaaaaa" d="M 2155 2129 L 1243 937 C 1239 931.6666666666665 1235 926.3333333333333 1231 921 L 987 629" id="v-3913" stroke-width="2" stroke-dasharray="30 30" fill="none" style="opacity: 1;"></path><path  fill="black" stroke="black" d="M 0 0 0 0" transform="matrix(-0.6076892477468702,-0.7941749040185309,0.7941749040185309,-0.6076892477468702,2155.219970703125,2129)"></path><path  fill="#aaaaaa" stroke="#aaaaaa" d="M 20 0 L 0 10 L 20 20 z" id="v-3915" transform="matrix(0.6401844186703122,0.7682212637591816,-0.7682212637591816,0.6401844186703122,994.6822239196388,622.5981331171113)" style="opacity: 1;"></path><path  d="M 2155 2129 L 1243 937 C 1239 931.6666666666665 1235 926.3333333333333 1231 921 L 987 629" id="v-3914" fill="none" style="cursor: auto; pointer-events: visiblepainted;"></path><g ><g id="v-3907"  label-idx="0" cursor="move" transform="matrix(1,0,0,1,1577.3106689453125,1373.9498291015625)" style="cursor: default; opacity: 1;"><rect joint-selector="rect" id="v-3910" fill="#111111" rx="3" ry="3" pointer-events="none" width="185.67462158203125" height="32.31687927246094" transform="matrix(1,0,0,1,-92.1,-16.2)"></rect><text joint-selector="text" id="v-3909" font-size="24px" xml:space="preserve" y="0.8em" fill="#aaaaaa" text-anchor="middle" pointer-events="none" font-family="Open Sans" font-weight="normal" transform="matrix(1,0,0,1,0,-9.5)"><tspan dy="0" >Reports updates</tspan></text></g><g id="v-3908"  label-idx="1" cursor="move" transform="matrix(1,0,0,1,1567.3106689453125,1400.9498291015625)" style="cursor: default; opacity: 1;"><rect joint-selector="rect" id="v-3912" fill="#ffffff" rx="3" ry="3"  width="0" height="0" transform="matrix(1,0,0,1,0,0)" display="none"></rect><text joint-selector="text" id="v-3911" fill="#000000" font-size="14" text-anchor="middle" pointer-events="none"></text></g></g><g  display="none" style="display: none;"><g  transform="translate(1237, 929)" id="v-3904"><circle  idx="0" r="10"></circle><path  idx="0" d="M16,5.333c-7.732,0-14,4.701-14,10.5c0,1.982,0.741,3.833,2.016,5.414L2,25.667l5.613-1.441c2.339,1.317,5.237,2.107,8.387,2.107c7.732,0,14-4.701,14-10.5C30,10.034,23.732,5.333,16,5.333z" transform="translate(5, -33)"></path><path  idx="0" transform="scale(.8) translate(9.5, -37)" d="M24.778,21.419 19.276,15.917 24.777,10.415 21.949,7.585 16.447,13.087 10.945,7.585 8.117,10.415 13.618,15.917 8.116,21.419 10.946,24.248 16.447,18.746 21.948,24.248z"><title>Remove vertex.</title></path></g></g><g  id="v-3917" display="none"><g  id="v-3905"><path  end="source" d="M 26 0 L 0 13 L 26 26 z"></path></g><g  id="v-3906"><path  end="target" d="M 26 0 L 0 13 L 26 26 z"></path></g></g><g  id="v-3916" display="none"><g  id="v-3903" transform="translate(2130.694082549863, 2097.2317394730667) "><g  event="remove"><circle r="11"></circle><path transform="scale(.8) translate(-16, -16)" d="M24.778,21.419 19.276,15.917 24.777,10.415 21.949,7.585 16.447,13.087 10.945,7.585 8.117,10.415 13.618,15.917 8.116,21.419 10.946,24.248 16.447,18.746 21.948,24.248z"></path><title>Remove link.</title></g><g  event="link:options"><circle r="11" transform="translate(25)"></circle><path fill="white" transform="scale(.55) translate(29, -16)" d="M31.229,17.736c0.064-0.571,0.104-1.148,0.104-1.736s-0.04-1.166-0.104-1.737l-4.377-1.557c-0.218-0.716-0.504-1.401-0.851-2.05l1.993-4.192c-0.725-0.91-1.549-1.734-2.458-2.459l-4.193,1.994c-0.647-0.347-1.334-0.632-2.049-0.849l-1.558-4.378C17.165,0.708,16.588,0.667,16,0.667s-1.166,0.041-1.737,0.105L12.707,5.15c-0.716,0.217-1.401,0.502-2.05,0.849L6.464,4.005C5.554,4.73,4.73,5.554,4.005,6.464l1.994,4.192c-0.347,0.648-0.632,1.334-0.849,2.05l-4.378,1.557C0.708,14.834,0.667,15.412,0.667,16s0.041,1.165,0.105,1.736l4.378,1.558c0.217,0.715,0.502,1.401,0.849,2.049l-1.994,4.193c0.725,0.909,1.549,1.733,2.459,2.458l4.192-1.993c0.648,0.347,1.334,0.633,2.05,0.851l1.557,4.377c0.571,0.064,1.148,0.104,1.737,0.104c0.588,0,1.165-0.04,1.736-0.104l1.558-4.377c0.715-0.218,1.399-0.504,2.049-0.851l4.193,1.993c0.909-0.725,1.733-1.549,2.458-2.458l-1.993-4.193c0.347-0.647,0.633-1.334,0.851-2.049L31.229,17.736zM16,20.871c-2.69,0-4.872-2.182-4.872-4.871c0-2.69,2.182-4.872,4.872-4.872c2.689,0,4.871,2.182,4.871,4.872C20.871,18.689,18.689,20.871,16,20.871z"></path><title>Link options.</title></g></g></g></g><g   id="j_337" ><path  stroke="#aaaaaa" d="M 862 629 L 862 929" id="v-3927" stroke-width="2" stroke-dasharray="30 30" fill="none" style="opacity: 1;"></path><path  fill="black" stroke="black" d="M 0 0 0 0" transform="matrix(6.123233995736765e-17,0.9999999999999999,-0.9999999999999999,6.123233995736765e-17,862,629)"></path><path  fill="#aaaaaa" stroke="#aaaaaa" d="M 20 0 L 0 10 L 20 20 z" id="v-3929" transform="matrix(-1.8369701987210294e-16,-0.9999999999999999,0.9999999999999999,-1.8369701987210294e-16,852,929)" style="opacity: 1;"></path><path  d="M 862 629 L 862 929" id="v-3928" fill="none" style="cursor: auto; pointer-events: visiblepainted;"></path><g ><g id="v-3921"  label-idx="0" cursor="move" transform="matrix(1,0,0,1,862,779)" style="cursor: default; opacity: 1;"><rect joint-selector="rect" id="v-3924" fill="#111111" rx="3" ry="3" pointer-events="none" width="83.6463623046875" height="32.31687927246094" transform="matrix(1,0,0,1,-41.1,-16.2)"></rect><text joint-selector="text" id="v-3923" font-size="24px" xml:space="preserve" y="0.8em" fill="#aaaaaa" text-anchor="middle" pointer-events="none" font-family="Open Sans" font-weight="normal" transform="matrix(1,0,0,1,0,-9.5)"><tspan dy="0" >Proxies</tspan></text></g><g id="v-3922"  label-idx="1" cursor="move" transform="matrix(1,0,0,1,852,806)" style="cursor: default; opacity: 1;"><rect joint-selector="rect" id="v-3926" fill="#ffffff" rx="3" ry="3"  width="0" height="0" transform="matrix(1,0,0,1,0,0)" display="none"></rect><text joint-selector="text" id="v-3925" fill="#000000" font-size="14" text-anchor="middle" pointer-events="none"></text></g></g><g  display="none" style="display: none;"></g><g  id="v-3931" display="none"><g  id="v-3919"><path  end="source" d="M 26 0 L 0 13 L 26 26 z"></path></g><g  id="v-3920"><path  end="target" d="M 26 0 L 0 13 L 26 26 z"></path></g></g><g  id="v-3930" display="none"><g  id="v-3918" transform="translate(862, 669) "><g  event="remove"><circle r="11"></circle><path transform="scale(.8) translate(-16, -16)" d="M24.778,21.419 19.276,15.917 24.777,10.415 21.949,7.585 16.447,13.087 10.945,7.585 8.117,10.415 13.618,15.917 8.116,21.419 10.946,24.248 16.447,18.746 21.948,24.248z"></path><title>Remove link.</title></g><g  event="link:options"><circle r="11" transform="translate(25)"></circle><path fill="white" transform="scale(.55) translate(29, -16)" d="M31.229,17.736c0.064-0.571,0.104-1.148,0.104-1.736s-0.04-1.166-0.104-1.737l-4.377-1.557c-0.218-0.716-0.504-1.401-0.851-2.05l1.993-4.192c-0.725-0.91-1.549-1.734-2.458-2.459l-4.193,1.994c-0.647-0.347-1.334-0.632-2.049-0.849l-1.558-4.378C17.165,0.708,16.588,0.667,16,0.667s-1.166,0.041-1.737,0.105L12.707,5.15c-0.716,0.217-1.401,0.502-2.05,0.849L6.464,4.005C5.554,4.73,4.73,5.554,4.005,6.464l1.994,4.192c-0.347,0.648-0.632,1.334-0.849,2.05l-4.378,1.557C0.708,14.834,0.667,15.412,0.667,16s0.041,1.165,0.105,1.736l4.378,1.558c0.217,0.715,0.502,1.401,0.849,2.049l-1.994,4.193c0.725,0.909,1.549,1.733,2.459,2.458l4.192-1.993c0.648,0.347,1.334,0.633,2.05,0.851l1.557,4.377c0.571,0.064,1.148,0.104,1.737,0.104c0.588,0,1.165-0.04,1.736-0.104l1.558-4.377c0.715-0.218,1.399-0.504,2.049-0.851l4.193,1.993c0.909-0.725,1.733-1.549,2.458-2.458l-1.993-4.193c0.347-0.647,0.633-1.334,0.851-2.049L31.229,17.736zM16,20.871c-2.69,0-4.872-2.182-4.872-4.871c0-2.69,2.182-4.872,4.872-4.872c2.689,0,4.871,2.182,4.871,4.872C20.871,18.689,18.689,20.871,16,20.871z"></path><title>Link options.</title></g></g></g></g><g   id="j_338" ><path  stroke="#aaaaaa" d="M 992 1829 L 1344 2129" id="v-3944" stroke-width="2" stroke-dasharray="30 30" fill="none" style="opacity: 1;"></path><path  fill="black" stroke="black" d="M 0 0 0 0" transform="matrix(0.761085103063753,0.6486520376090992,-0.6486520376090992,0.761085103063753,992,1829)"></path><path  fill="#aaaaaa" stroke="#aaaaaa" d="M 20 0 L 0 10 L 20 20 z" id="v-3946" transform="matrix(-0.7610851030637531,-0.648652037609099,0.648652037609099,-0.7610851030637531,1337.5134908107966,2136.6107991411036)" style="opacity: 1;"></path><path  d="M 992 1829 L 1344 2129" id="v-3945" fill="none" style="cursor: auto; pointer-events: visiblepainted;"></path><g ><g id="v-3938"  label-idx="0" cursor="move" transform="matrix(1,0,0,1,1168,1979)" style="cursor: default; opacity: 1;"><rect joint-selector="rect" id="v-3941" fill="#111111" rx="3" ry="3" pointer-events="none" width="199.15277099609375" height="61.11688232421875" transform="matrix(1,0,0,1,-99.6,-30.6)"></rect><text joint-selector="text" id="v-3940" font-size="24px" xml:space="preserve" y="0.8em" fill="#aaaaaa" text-anchor="middle" pointer-events="none" font-family="Open Sans" font-weight="normal" transform="matrix(1,0,0,1,0,-23.9)"><tspan dy="0" >Retrieves booking</tspan><tspan dy="1.2em" x="0" >details from</tspan></text></g><g id="v-3939"  label-idx="1" cursor="move" transform="matrix(1,0,0,1,1158,2021)" style="cursor: default; opacity: 1;"><rect joint-selector="rect" id="v-3943" fill="#ffffff" rx="3" ry="3"  width="0" height="0" transform="matrix(1,0,0,1,0,0)" display="none"></rect><text joint-selector="text" id="v-3942" fill="#000000" font-size="14" text-anchor="middle" pointer-events="none"></text></g></g><g  display="none" style="display: none;"></g><g  id="v-3948" display="none"><g  id="v-3936"><path  end="source" d="M 26 0 L 0 13 L 26 26 z"></path></g><g  id="v-3937"><path  end="target" d="M 26 0 L 0 13 L 26 26 z"></path></g></g><g  id="v-3947" display="none"><g  id="v-3935" transform="translate(1022.4434033550625, 1854.9460824048829) "><g  event="remove"><circle r="11"></circle><path transform="scale(.8) translate(-16, -16)" d="M24.778,21.419 19.276,15.917 24.777,10.415 21.949,7.585 16.447,13.087 10.945,7.585 8.117,10.415 13.618,15.917 8.116,21.419 10.946,24.248 16.447,18.746 21.948,24.248z"></path><title>Remove link.</title></g><g  event="link:options"><circle r="11" transform="translate(25)"></circle><path fill="white" transform="scale(.55) translate(29, -16)" d="M31.229,17.736c0.064-0.571,0.104-1.148,0.104-1.736s-0.04-1.166-0.104-1.737l-4.377-1.557c-0.218-0.716-0.504-1.401-0.851-2.05l1.993-4.192c-0.725-0.91-1.549-1.734-2.458-2.459l-4.193,1.994c-0.647-0.347-1.334-0.632-2.049-0.849l-1.558-4.378C17.165,0.708,16.588,0.667,16,0.667s-1.166,0.041-1.737,0.105L12.707,5.15c-0.716,0.217-1.401,0.502-2.05,0.849L6.464,4.005C5.554,4.73,4.73,5.554,4.005,6.464l1.994,4.192c-0.347,0.648-0.632,1.334-0.849,2.05l-4.378,1.557C0.708,14.834,0.667,15.412,0.667,16s0.041,1.165,0.105,1.736l4.378,1.558c0.217,0.715,0.502,1.401,0.849,2.049l-1.994,4.193c0.725,0.909,1.549,1.733,2.459,2.458l4.192-1.993c0.648,0.347,1.334,0.633,2.05,0.851l1.557,4.377c0.571,0.064,1.148,0.104,1.737,0.104c0.588,0,1.165-0.04,1.736-0.104l1.558-4.377c0.715-0.218,1.399-0.504,2.049-0.851l4.193,1.993c0.909-0.725,1.733-1.549,2.458-2.458l-1.993-4.193c0.347-0.647,0.633-1.334,0.851-2.049L31.229,17.736zM16,20.871c-2.69,0-4.872-2.182-4.872-4.871c0-2.69,2.182-4.872,4.872-4.872c2.689,0,4.871,2.182,4.871,4.872C20.871,18.689,18.689,20.871,16,20.871z"></path><title>Link options.</title></g></g></g></g><g   id="j_339" ><path  stroke="#aaaaaa" d="M 1041 1772 L 2045 2186" id="v-3961" stroke-width="2" stroke-dasharray="30 30" fill="none" style="opacity: 1;"></path><path  fill="black" stroke="black" d="M 0 0 0 0" transform="matrix(0.9243899124900777,0.38144893457261897,-0.38144893457261897,0.9243899124900777,1041,1771.8499755859375)"></path><path  fill="#aaaaaa" stroke="#aaaaaa" d="M 20 0 L 0 10 L 20 20 z" id="v-3963" transform="matrix(-0.9243899124900777,-0.381448934572619,0.381448934572619,-0.9243899124900777,2041.1855132947996,2195.393837689377)" style="opacity: 1;"></path><path  d="M 1041 1772 L 2045 2186" id="v-3962" fill="none" style="cursor: auto; pointer-events: visiblepainted;"></path><g ><g id="v-3955"  label-idx="0" cursor="move" transform="matrix(1,0,0,1,1543,1979)" style="cursor: default; opacity: 1;"><rect joint-selector="rect" id="v-3958" fill="#111111" rx="3" ry="3" pointer-events="none" width="199.15277099609375" height="61.11688232421875" transform="matrix(1,0,0,1,-99.6,-30.6)"></rect><text joint-selector="text" id="v-3957" font-size="24px" xml:space="preserve" y="0.8em" fill="#aaaaaa" text-anchor="middle" pointer-events="none" font-family="Open Sans" font-weight="normal" transform="matrix(1,0,0,1,0,-23.9)"><tspan dy="0" >Retrieves booking</tspan><tspan dy="1.2em" x="0" >details from</tspan></text></g><g id="v-3956"  label-idx="1" cursor="move" transform="matrix(1,0,0,1,1533,2021)" style="cursor: default; opacity: 1;"><rect joint-selector="rect" id="v-3960" fill="#ffffff" rx="3" ry="3"  width="0" height="0" transform="matrix(1,0,0,1,0,0)" display="none"></rect><text joint-selector="text" id="v-3959" fill="#000000" font-size="14" text-anchor="middle" pointer-events="none"></text></g></g><g  display="none" style="display: none;"></g><g  id="v-3965" display="none"><g  id="v-3953"><path  end="source" d="M 26 0 L 0 13 L 26 26 z"></path></g><g  id="v-3954"><path  end="target" d="M 26 0 L 0 13 L 26 26 z"></path></g></g><g  id="v-3964" display="none"><g  id="v-3952" transform="translate(1077.9794913371527, 1787.2485153521725) "><g  event="remove"><circle r="11"></circle><path transform="scale(.8) translate(-16, -16)" d="M24.778,21.419 19.276,15.917 24.777,10.415 21.949,7.585 16.447,13.087 10.945,7.585 8.117,10.415 13.618,15.917 8.116,21.419 10.946,24.248 16.447,18.746 21.948,24.248z"></path><title>Remove link.</title></g><g  event="link:options"><circle r="11" transform="translate(25)"></circle><path fill="white" transform="scale(.55) translate(29, -16)" d="M31.229,17.736c0.064-0.571,0.104-1.148,0.104-1.736s-0.04-1.166-0.104-1.737l-4.377-1.557c-0.218-0.716-0.504-1.401-0.851-2.05l1.993-4.192c-0.725-0.91-1.549-1.734-2.458-2.459l-4.193,1.994c-0.647-0.347-1.334-0.632-2.049-0.849l-1.558-4.378C17.165,0.708,16.588,0.667,16,0.667s-1.166,0.041-1.737,0.105L12.707,5.15c-0.716,0.217-1.401,0.502-2.05,0.849L6.464,4.005C5.554,4.73,4.73,5.554,4.005,6.464l1.994,4.192c-0.347,0.648-0.632,1.334-0.849,2.05l-4.378,1.557C0.708,14.834,0.667,15.412,0.667,16s0.041,1.165,0.105,1.736l4.378,1.558c0.217,0.715,0.502,1.401,0.849,2.049l-1.994,4.193c0.725,0.909,1.549,1.733,2.459,2.458l4.192-1.993c0.648,0.347,1.334,0.633,2.05,0.851l1.557,4.377c0.571,0.064,1.148,0.104,1.737,0.104c0.588,0,1.165-0.04,1.736-0.104l1.558-4.377c0.715-0.218,1.399-0.504,2.049-0.851l4.193,1.993c0.909-0.725,1.733-1.549,2.458-2.458l-1.993-4.193c0.347-0.647,0.633-1.334,0.851-2.049L31.229,17.736zM16,20.871c-2.69,0-4.872-2.182-4.872-4.871c0-2.69,2.182-4.872,4.872-4.872c2.689,0,4.871,2.182,4.871,4.872C20.871,18.689,18.689,20.871,16,20.871z"></path><title>Link options.</title></g></g></g></g><g   id="j_340" ><path  stroke="#aaaaaa" d="M 737 629 L 493 921 C 488.99999999999994 926.3333333333333 486.99999999999994 932.3333333333333 487 939 L 487 1219 C 486.99999999999994 1225.6666666666665 488.99999999999994 1231.6666666666665 493 1237 L 706 1529" id="v-3977" stroke-width="2" stroke-dasharray="30 30" fill="none" style="opacity: 1;"></path><path  fill="black" stroke="black" d="M 0 0 0 0" transform="matrix(-0.6401844186703122,0.7682212637591816,-0.7682212637591816,-0.6401844186703122,737,629)"></path><path  fill="#aaaaaa" stroke="#aaaaaa" d="M 20 0 L 0 10 L 20 20 z" id="v-3979" transform="matrix(-0.5901905620347488,-0.8072639596099327,0.8072639596099327,-0.5901905620347488,698.2573666101856,1534.9019133805093)" style="opacity: 1;"></path><path  d="M 737 629 L 493 921 C 488.99999999999994 926.3333333333333 486.99999999999994 932.3333333333333 487 939 L 487 1219 C 486.99999999999994 1225.6666666666665 488.99999999999994 1231.6666666666665 493 1237 L 706 1529" id="v-3978" fill="none" style="cursor: auto; pointer-events: visiblepainted;"></path><g ><g id="v-3971"  label-idx="0" cursor="move" transform="matrix(1,0,0,1,487,1069.4530029296875)" style="cursor: default; opacity: 1;"><rect joint-selector="rect" id="v-3974" fill="#111111" rx="3" ry="3" pointer-events="none" width="83.6463623046875" height="32.31687927246094" transform="matrix(1,0,0,1,-41.1,-16.2)"></rect><text joint-selector="text" id="v-3973" font-size="24px" xml:space="preserve" y="0.8em" fill="#aaaaaa" text-anchor="middle" pointer-events="none" font-family="Open Sans" font-weight="normal" transform="matrix(1,0,0,1,0,-9.5)"><tspan dy="0" >Proxies</tspan></text></g><g id="v-3972"  label-idx="1" cursor="move" transform="matrix(1,0,0,1,477,1096.4530029296875)" style="cursor: default; opacity: 1;"><rect joint-selector="rect" id="v-3976" fill="#ffffff" rx="3" ry="3"  width="0" height="0" transform="matrix(1,0,0,1,0,0)" display="none"></rect><text joint-selector="text" id="v-3975" fill="#000000" font-size="14" text-anchor="middle" pointer-events="none"></text></g></g><g  display="none" style="display: none;"><g  transform="translate(487, 929)" id="v-3967"><circle  idx="0" r="10"></circle><path  idx="0" d="M16,5.333c-7.732,0-14,4.701-14,10.5c0,1.982,0.741,3.833,2.016,5.414L2,25.667l5.613-1.441c2.339,1.317,5.237,2.107,8.387,2.107c7.732,0,14-4.701,14-10.5C30,10.034,23.732,5.333,16,5.333z" transform="translate(5, -33)"></path><path  idx="0" transform="scale(.8) translate(9.5, -37)" d="M24.778,21.419 19.276,15.917 24.777,10.415 21.949,7.585 16.447,13.087 10.945,7.585 8.117,10.415 13.618,15.917 8.116,21.419 10.946,24.248 16.447,18.746 21.948,24.248z"><title>Remove vertex.</title></path></g><g  transform="translate(487, 1229)" id="v-3968"><circle  idx="1" r="10"></circle><path  idx="1" d="M16,5.333c-7.732,0-14,4.701-14,10.5c0,1.982,0.741,3.833,2.016,5.414L2,25.667l5.613-1.441c2.339,1.317,5.237,2.107,8.387,2.107c7.732,0,14-4.701,14-10.5C30,10.034,23.732,5.333,16,5.333z" transform="translate(5, -33)"></path><path  idx="1" transform="scale(.8) translate(9.5, -37)" d="M24.778,21.419 19.276,15.917 24.777,10.415 21.949,7.585 16.447,13.087 10.945,7.585 8.117,10.415 13.618,15.917 8.116,21.419 10.946,24.248 16.447,18.746 21.948,24.248z"><title>Remove vertex.</title></path></g></g><g  id="v-3981" display="none"><g  id="v-3969"><path  end="source" d="M 26 0 L 0 13 L 26 26 z"></path></g><g  id="v-3970"><path  end="target" d="M 26 0 L 0 13 L 26 26 z"></path></g></g><g  id="v-3980" display="none"><g  id="v-3966" transform="translate(711.3512894360914, 659.6943585436941) "><g  event="remove"><circle r="11"></circle><path transform="scale(.8) translate(-16, -16)" d="M24.778,21.419 19.276,15.917 24.777,10.415 21.949,7.585 16.447,13.087 10.945,7.585 8.117,10.415 13.618,15.917 8.116,21.419 10.946,24.248 16.447,18.746 21.948,24.248z"></path><title>Remove link.</title></g><g  event="link:options"><circle r="11" transform="translate(25)"></circle><path fill="white" transform="scale(.55) translate(29, -16)" d="M31.229,17.736c0.064-0.571,0.104-1.148,0.104-1.736s-0.04-1.166-0.104-1.737l-4.377-1.557c-0.218-0.716-0.504-1.401-0.851-2.05l1.993-4.192c-0.725-0.91-1.549-1.734-2.458-2.459l-4.193,1.994c-0.647-0.347-1.334-0.632-2.049-0.849l-1.558-4.378C17.165,0.708,16.588,0.667,16,0.667s-1.166,0.041-1.737,0.105L12.707,5.15c-0.716,0.217-1.401,0.502-2.05,0.849L6.464,4.005C5.554,4.73,4.73,5.554,4.005,6.464l1.994,4.192c-0.347,0.648-0.632,1.334-0.849,2.05l-4.378,1.557C0.708,14.834,0.667,15.412,0.667,16s0.041,1.165,0.105,1.736l4.378,1.558c0.217,0.715,0.502,1.401,0.849,2.049l-1.994,4.193c0.725,0.909,1.549,1.733,2.459,2.458l4.192-1.993c0.648,0.347,1.334,0.633,2.05,0.851l1.557,4.377c0.571,0.064,1.148,0.104,1.737,0.104c0.588,0,1.165-0.04,1.736-0.104l1.558-4.377c0.715-0.218,1.399-0.504,2.049-0.851l4.193,1.993c0.909-0.725,1.733-1.549,2.458-2.458l-1.993-4.193c0.347-0.647,0.633-1.334,0.851-2.049L31.229,17.736zM16,20.871c-2.69,0-4.872-2.182-4.872-4.871c0-2.69,2.182-4.872,4.872-4.872c2.689,0,4.871,2.182,4.871,4.872C20.871,18.689,18.689,20.871,16,20.871z"></path><title>Link options.</title></g></g></g></g></g><g ></g><g ></g><g ></g></g></svg>