<svg xmlns="http://www.w3.org/2000/svg" xmlns:xlink="http://www.w3.org/1999/xlink" version="1.1" viewBox="0 0 2929 3120" style="background: #111111"><defs joint-selector="defs"></defs><g joint-selector="layers"  transform="matrix(1,0,0,1,0,0)"><g ></g><g ><g   id="j_276"  transform="translate(20,3075)"><g id="v-3203"><text  id="v-3204" font-size="22px" xml:space="preserve" y="0.8em" font-weight="normal" text-anchor="start" fill="#777777" pointer-events="none" font-family="Open Sans"><tspan dy="0" >Saturday, September 16, 2023 at 11:11 PM Eastern Daylight Time</tspan></text></g></g><g   id="j_275"  transform="translate(20,3031)"><g id="v-3201"><text  id="v-3202" font-size="36px" xml:space="preserve" y="0.8em" font-weight="normal" text-anchor="start" fill="#bbbbbb" pointer-events="none" font-family="Open Sans"><tspan dy="0" >[Container] Email Processing</tspan></text></g></g><g   id="j_253"  transform="translate(574,2620)" style=""><g  id="v-2911" style="opacity: 1;"><rect  id="v-2912" rx="20" ry="20" stroke="#0f5eaa" stroke-width="2" pointer-events="visiblePainted" fill="#1168bd" width="450" height="300" style="fill: rgb(17, 104, 189); stroke: rgb(15, 94, 170);"></rect><text  id="v-2913" font-size="34" xml:space="preserve" y="0.8em" font-weight="bold" text-anchor="middle" pointer-events="visible" font-family="Open Sans" fill="#ffffff" transform="matrix(1,0,0,1,225,98.1)" style="fill: rgb(255, 255, 255);"><tspan dy="0" >Trip Management</tspan></text><text  id="v-2914" font-size="17" xml:space="preserve" y="0.8em" text-anchor="middle" font-family="Open Sans" fill="#ffffff" transform="matrix(1,0,0,1,225,140.6)" style="fill: rgb(255, 255, 255);"><tspan dy="0" >[Software System]</tspan></text><text  id="v-2915" font-size="24" xml:space="preserve" y="0.8em" text-anchor="middle" font-family="Open Sans" fill="#ffffff" transform="matrix(1,0,0,1,225,171.9)" style="fill: rgb(255, 255, 255);"><tspan dy="0" >Core</tspan></text><g  id="v-2916" color="#ffffff" transform="matrix(1,0,0,1,210,211.9)" display="none" style="fill: rgb(255, 255, 255);"><g  transform="translate(5 0)"><svg xmlns="http://www.w3.org/2000/svg" width="20" height="20" fill="currentColor" viewBox="0 0 16 16"><path fill-rule="evenodd" d="M6.5 12a5.5 5.5 0 1 0 0-11 5.5 5.5 0 0 0 0 11zM13 6.5a6.5 6.5 0 1 1-13 0 6.5 6.5 0 0 1 13 0z"></path><path d="M10.344 11.742c.03.04.062.078.098.115l3.85 3.85a1 1 0 0 0 1.415-1.414l-3.85-3.85a1.007 1.007 0 0 0-.115-.1 6.538 6.538 0 0 1-1.398 1.4z"></path><path fill-rule="evenodd" d="M6.5 3a.5.5 0 0 1 .5.5V6h2.5a.5.5 0 0 1 0 1H7v2.5a.5.5 0 0 1-1 0V7H3.5a.5.5 0 0 1 0-1H6V3.5a.5.5 0 0 1 .5-.5z"></path></svg></g><g ></g><g ></g><g ></g></g><image  id="v-2917"></image></g></g><g   id="j_254"  transform="translate(541,2020)" style=""><g  id="v-2921" style="opacity: 1;"><rect  id="v-2922" rx="20" ry="20" stroke="#737373" stroke-width="2" pointer-events="visiblePainted" fill="#808080" width="450" height="300" style="fill: rgb(128, 128, 128); stroke: rgb(115, 115, 115);"></rect><text  id="v-2923" font-size="34" xml:space="preserve" y="0.8em" font-weight="bold" text-anchor="middle" pointer-events="visible" font-family="Open Sans" fill="#ffffff" transform="matrix(1,0,0,1,225,113.1)" style="fill: rgb(255, 255, 255);"><tspan dy="0" >Email Service Provider</tspan></text><text  id="v-2924" font-size="17" xml:space="preserve" y="0.8em" text-anchor="middle" font-family="Open Sans" fill="#ffffff" transform="matrix(1,0,0,1,225,155.6)" style="fill: rgb(255, 255, 255);"><tspan dy="0" >[Software System]</tspan></text><text  id="v-2925" font-size="24" xml:space="preserve" display="none" y="0.8em" text-anchor="middle" font-family="Open Sans" fill="#ffffff" transform="matrix(1,0,0,1,225,186.9)" style="fill: rgb(255, 255, 255);"><tspan dy="0" style="fill-opacity: 0; stroke-opacity: 0;" >-</tspan></text><g  id="v-2926" color="#ffffff" transform="matrix(1,0,0,1,222.5,196.9)" display="none" style="fill: rgb(255, 255, 255);"><g ></g><g ></g><g ></g><g ></g></g><image  id="v-2927"></image></g></g><g   id="j_256"  transform="translate(1179,200)" style=""><g id="v-2938"><rect  id="v-2939" width="1549" height="2211" rx="0" ry="0" fill="#111111" stroke="#0f5eaa" stroke-width="1" stroke-dasharray="20,20" pointer-events="none"></rect><text  id="v-2940" font-size="24px" xml:space="preserve" y="2172" font-weight="normal" fill="#0f5eaa" text-anchor="start" pointer-events="visible" font-family="Open Sans" transform="matrix(1,0,0,1,15,0)"><tspan dy="0" >Email Processing</tspan></text><text  id="v-2941" font-size="17px" xml:space="preserve" y="2196" font-weight="normal" fill="#0f5eaa" text-anchor="start" pointer-events="visible" font-family="Open Sans" transform="matrix(1,0,0,1,15,0)"><tspan dy="0" >[Software System]</tspan></text><image  id="v-2942" pointer-events="visible"></image></g></g><g   id="j_255"  transform="translate(2258,1420)" style=""><g  id="v-2931" style="opacity: 1;"><rect  id="v-2932" rx="20" ry="20" stroke="#3c7fc0" stroke-width="2" pointer-events="visiblePainted" fill="#438dd5" width="450" height="300" style="fill: rgb(67, 141, 213); stroke: rgb(60, 127, 192);"></rect><text  id="v-2933" font-size="34" xml:space="preserve" y="0.8em" font-weight="bold" text-anchor="middle" pointer-events="visible" font-family="Open Sans" fill="#ffffff" transform="matrix(1,0,0,1,225,68.1)" style="fill: rgb(255, 255, 255);"><tspan dy="0" >Email Agents</tspan></text><text  id="v-2934" font-size="17" xml:space="preserve" y="0.8em" text-anchor="middle" font-family="Open Sans" fill="#ffffff" transform="matrix(1,0,0,1,225,110.6)" style="fill: rgb(255, 255, 255);"><tspan dy="0" >[Container]</tspan></text><text  id="v-2935" font-size="24" xml:space="preserve" y="0.8em" text-anchor="middle" font-family="Open Sans" fill="#ffffff" transform="matrix(1,0,0,1,225,141.9)" style="fill: rgb(255, 255, 255);"><tspan dy="0" >Provider specific Agents talk to their</tspan><tspan dy="1.2em" x="0" >Email providers and poll for any</tspan><tspan dy="1.2em" x="0" >new trip booking</tspan></text><g  id="v-2936" color="#ffffff" transform="matrix(1,0,0,1,222.5,241.9)" display="none" style="fill: rgb(255, 255, 255);"><g ></g><g ></g><g ></g><g ></g></g><image  id="v-2937"></image></g></g><g   id="j_257"  transform="translate(2258,820)" style=""><g  id="v-2949" style="opacity: 1;"><rect  id="v-2950" rx="20" ry="20" stroke="#3c7fc0" stroke-width="2" pointer-events="visiblePainted" fill="#438dd5" width="450" height="300" style="fill: rgb(67, 141, 213); stroke: rgb(60, 127, 192);"></rect><text  id="v-2951" font-size="34" xml:space="preserve" y="0.8em" font-weight="bold" text-anchor="middle" pointer-events="visible" font-family="Open Sans" fill="#ffffff" transform="matrix(1,0,0,1,225,83.1)" style="fill: rgb(255, 255, 255);"><tspan dy="0" >Email Agent Scheduler</tspan></text><text  id="v-2952" font-size="17" xml:space="preserve" y="0.8em" text-anchor="middle" font-family="Open Sans" fill="#ffffff" transform="matrix(1,0,0,1,225,125.6)" style="fill: rgb(255, 255, 255);"><tspan dy="0" >[Container]</tspan></text><text  id="v-2953" font-size="24" xml:space="preserve" y="0.8em" text-anchor="middle" font-family="Open Sans" fill="#ffffff" transform="matrix(1,0,0,1,225,156.9)" style="fill: rgb(255, 255, 255);"><tspan dy="0" >Schedules a new agent to start</tspan><tspan dy="1.2em" x="0" >polling for new trip booking</tspan></text><g  id="v-2954" color="#ffffff" transform="matrix(1,0,0,1,222.5,226.9)" display="none" style="fill: rgb(255, 255, 255);"><g ></g><g ></g><g ></g><g ></g></g><image  id="v-2955"></image></g></g><g   id="j_258"  transform="translate(1991,220)" style=""><g  id="v-2959" style="opacity: 1;"><rect  id="v-2960" rx="20" ry="20" stroke="#3c7fc0" stroke-width="2" pointer-events="visiblePainted" fill="#438dd5" width="450" height="300" style="fill: rgb(67, 141, 213); stroke: rgb(60, 127, 192);"></rect><text  id="v-2961" font-size="34" xml:space="preserve" y="0.8em" font-weight="bold" text-anchor="middle" pointer-events="visible" font-family="Open Sans" fill="#ffffff" transform="matrix(1,0,0,1,225,68.1)" style="fill: rgb(255, 255, 255);"><tspan dy="0" >Supervisor</tspan></text><text  id="v-2962" font-size="17" xml:space="preserve" y="0.8em" text-anchor="middle" font-family="Open Sans" fill="#ffffff" transform="matrix(1,0,0,1,225,110.6)" style="fill: rgb(255, 255, 255);"><tspan dy="0" >[Container]</tspan></text><text  id="v-2963" font-size="24" xml:space="preserve" y="0.8em" text-anchor="middle" font-family="Open Sans" fill="#ffffff" transform="matrix(1,0,0,1,225,141.9)" style="fill: rgb(255, 255, 255);"><tspan dy="0" >Monitors the status of the polling</tspan><tspan dy="1.2em" x="0" >job in the state store, and requests</tspan><tspan dy="1.2em" x="0" >for any failed job to be reattempted</tspan></text><g  id="v-2964" color="#ffffff" transform="matrix(1,0,0,1,222.5,241.9)" display="none" style="fill: rgb(255, 255, 255);"><g ></g><g ></g><g ></g><g ></g></g><image  id="v-2965"></image></g></g><g   id="j_259"  transform="translate(1508,1420)" style=""><g  id="v-2969" style="opacity: 1;"><path  d="M 0,30 a 225,30 0,0,0 450 0 a 225,30 0,0,0 -450 0 l 0,240 a 225,30 0,0,0 450 0 l 0,-240" id="v-2970" stroke="#3c7fc0" stroke-width="2" pointer-events="visiblePainted" fill="#438dd5" style="fill: rgb(67, 141, 213); stroke: rgb(60, 127, 192);"></path><rect  id="v-2971" stroke-width="0" pointer-events="visiblePainted" fill="none" stroke="none" width="450" height="270" x="0" y="30"></rect><text  id="v-2972" font-size="34" xml:space="preserve" y="0.8em" font-weight="bold" text-anchor="middle" pointer-events="visible" font-family="Open Sans" fill="#ffffff" transform="matrix(1,0,0,1,225,113.1)" style="fill: rgb(255, 255, 255);"><tspan dy="0" >State Store</tspan></text><text  id="v-2973" font-size="17" xml:space="preserve" y="0.8em" text-anchor="middle" font-family="Open Sans" fill="#ffffff" transform="matrix(1,0,0,1,225,155.6)" style="fill: rgb(255, 255, 255);"><tspan dy="0" >[Container]</tspan></text><text  id="v-2974" font-size="24" xml:space="preserve" y="0.8em" text-anchor="middle" font-family="Open Sans" fill="#ffffff" transform="matrix(1,0,0,1,225,186.9)" style="fill: rgb(255, 255, 255);"><tspan dy="0" >Stores polling job states and user's</tspan><tspan dy="1.2em" x="0" >email polling preferences</tspan></text><g  id="v-2975" font-weight="normal" text-anchor="middle" color="#ffffff" transform="matrix(1,0,0,1,222.5,256.9)" display="none" style="fill: rgb(255, 255, 255);"><g ></g><g ></g><g ></g><g ></g></g><image  id="v-2976"></image></g></g><g   id="j_260"  transform="translate(1291,2020)" style=""><g  id="v-2980" style="opacity: 1;"><rect  id="v-2981" rx="20" ry="20" stroke="#3c7fc0" stroke-width="2" pointer-events="visiblePainted" fill="#438dd5" width="450" height="300" style="fill: rgb(67, 141, 213); stroke: rgb(60, 127, 192);"></rect><text  id="v-2982" font-size="34" xml:space="preserve" y="0.8em" font-weight="bold" text-anchor="middle" pointer-events="visible" font-family="Open Sans" fill="#ffffff" transform="matrix(1,0,0,1,225,68.1)" style="fill: rgb(255, 255, 255);"><tspan dy="0" >Trip Notifier</tspan></text><text  id="v-2983" font-size="17" xml:space="preserve" y="0.8em" text-anchor="middle" font-family="Open Sans" fill="#ffffff" transform="matrix(1,0,0,1,225,110.6)" style="fill: rgb(255, 255, 255);"><tspan dy="0" >[Container]</tspan></text><text  id="v-2984" font-size="24" xml:space="preserve" y="0.8em" text-anchor="middle" font-family="Open Sans" fill="#ffffff" transform="matrix(1,0,0,1,225,141.9)" style="fill: rgb(255, 255, 255);"><tspan dy="0" >Update the Trip management</tspan><tspan dy="1.2em" x="0" >microservice with a new trip</tspan><tspan dy="1.2em" x="0" >booking</tspan></text><g  id="v-2985" color="#ffffff" transform="matrix(1,0,0,1,222.5,241.9)" display="none" style="fill: rgb(255, 255, 255);"><g ></g><g ></g><g ></g><g ></g></g><image  id="v-2986"></image></g></g><g   id="j_261"  transform="translate(1199,820)" style=""><g  id="v-2990" style="opacity: 1;"><rect  id="v-2991" rx="20" ry="20" stroke="#3c7fc0" stroke-width="2" pointer-events="visiblePainted" fill="#438dd5" width="450" height="300" style="fill: rgb(67, 141, 213); stroke: rgb(60, 127, 192);"></rect><text  id="v-2992" font-size="34" xml:space="preserve" y="0.8em" font-weight="bold" text-anchor="middle" pointer-events="visible" font-family="Open Sans" fill="#ffffff" transform="matrix(1,0,0,1,225,38.1)" style="fill: rgb(255, 255, 255);"><tspan dy="0" >Email Endpoint</tspan></text><text  id="v-2993" font-size="17" xml:space="preserve" y="0.8em" text-anchor="middle" font-family="Open Sans" fill="#ffffff" transform="matrix(1,0,0,1,225,80.6)" style="fill: rgb(255, 255, 255);"><tspan dy="0" >[Container]</tspan></text><text  id="v-2994" font-size="24" xml:space="preserve" y="0.8em" text-anchor="middle" font-family="Open Sans" fill="#ffffff" transform="matrix(1,0,0,1,225,111.9)" style="fill: rgb(255, 255, 255);"><tspan dy="0" >Provides API endpoints to receive</tspan><tspan dy="1.2em" x="0" >any new manually forwarded</tspan><tspan dy="1.2em" x="0" >booking details. It also connects</tspan><tspan dy="1.2em" x="0" >with email providers to update</tspan><tspan dy="1.2em" x="0" >forwarding rules.</tspan></text><g  id="v-2995" color="#ffffff" transform="matrix(1,0,0,1,222.5,271.9)" display="none" style="fill: rgb(255, 255, 255);"><g ></g><g ></g><g ></g><g ></g></g><image  id="v-2996"></image></g></g><g   id="j_262"  transform="translate(199,220)" style=""><g  id="v-2997" style="opacity: 1;"><rect  id="v-2998" rx="20" ry="20" stroke="#0f5eaa" stroke-width="2" pointer-events="visiblePainted" fill="#1168bd" width="450" height="300" style="fill: rgb(17, 104, 189); stroke: rgb(15, 94, 170);"></rect><text  id="v-2999" font-size="34" xml:space="preserve" y="0.8em" font-weight="bold" text-anchor="middle" pointer-events="visible" font-family="Open Sans" fill="#ffffff" transform="matrix(1,0,0,1,225,113.1)" style="fill: rgb(255, 255, 255);"><tspan dy="0" >Load Balancer</tspan></text><text  id="v-3000" font-size="17" xml:space="preserve" y="0.8em" text-anchor="middle" font-family="Open Sans" fill="#ffffff" transform="matrix(1,0,0,1,225,155.6)" style="fill: rgb(255, 255, 255);"><tspan dy="0" >[Software System]</tspan></text><text  id="v-3001" font-size="24" xml:space="preserve" display="none" y="0.8em" text-anchor="middle" font-family="Open Sans" fill="#ffffff" transform="matrix(1,0,0,1,225,186.9)" style="fill: rgb(255, 255, 255);"><tspan dy="0" style="fill-opacity: 0; stroke-opacity: 0;" >-</tspan></text><g  id="v-3002" color="#ffffff" transform="matrix(1,0,0,1,222.5,196.9)" display="none" style="fill: rgb(255, 255, 255);"><g ></g><g ></g><g ></g><g ></g></g><image  id="v-3003"></image></g></g><g   id="j_263" ><path  stroke="#aaaaaa" d="M 2258 1710 L 1741 2030" id="v-3016" stroke-width="2" stroke-dasharray="30 30" fill="none" style="opacity: 1;"></path><path  fill="black" stroke="black" d="M 0 0 0 0" transform="matrix(-0.8497260426411665,0.5272244801385674,-0.5272244801385674,-0.8497260426411665,2258,1709.6099853515625)"></path><path  fill="#aaaaaa" stroke="#aaaaaa" d="M 20 0 L 0 10 L 20 20 z" id="v-3018" transform="matrix(0.8497260426411666,-0.5272244801385672,0.5272244801385672,0.8497260426411666,1735.7278092253277,2021.8927822265366)" style="opacity: 1;"></path><path  d="M 2258 1710 L 1741 2030" id="v-3017" fill="none" style="cursor: auto; pointer-events: visiblepainted;"></path><g ><g id="v-3010"  label-idx="0" cursor="move" transform="matrix(1,0,0,1,1999.5,1870)" style="cursor: default; opacity: 1;"><rect joint-selector="rect" id="v-3013" fill="#111111" rx="3" ry="3" pointer-events="none" width="196.2972412109375" height="32.90275573730469" transform="matrix(1,0,0,1,-96.4,-16.5)"></rect><text joint-selector="text" id="v-3012" font-size="24px" xml:space="preserve" y="0.8em" fill="#aaaaaa" text-anchor="middle" pointer-events="none" font-family="Open Sans" font-weight="normal" transform="matrix(1,0,0,1,0,-10.1)"><tspan dy="0" >received new trip</tspan></text></g><g id="v-3011"  label-idx="1" cursor="move" transform="matrix(1,0,0,1,1989.5,1897)" style="cursor: default; opacity: 1;"><rect joint-selector="rect" id="v-3015" fill="#ffffff" rx="3" ry="3"  width="0" height="0" transform="matrix(1,0,0,1,0,0)" display="none"></rect><text joint-selector="text" id="v-3014" fill="#000000" font-size="14" text-anchor="middle" pointer-events="none"></text></g></g><g  display="none" style="display: none;"></g><g  id="v-3020" display="none"><g  id="v-3008"><path  end="source" d="M 26 0 L 0 13 L 26 26 z"></path></g><g  id="v-3009"><path  end="target" d="M 26 0 L 0 13 L 26 26 z"></path></g></g><g  id="v-3019" display="none"><g  id="v-3007" transform="translate(2223.9879921845504, 1731.0519197310323) "><g  event="remove"><circle r="11"></circle><path transform="scale(.8) translate(-16, -16)" d="M24.778,21.419 19.276,15.917 24.777,10.415 21.949,7.585 16.447,13.087 10.945,7.585 8.117,10.415 13.618,15.917 8.116,21.419 10.946,24.248 16.447,18.746 21.948,24.248z"></path><title>Remove link.</title></g><g  event="link:options"><circle r="11" transform="translate(25)"></circle><path fill="white" transform="scale(.55) translate(29, -16)" d="M31.229,17.736c0.064-0.571,0.104-1.148,0.104-1.736s-0.04-1.166-0.104-1.737l-4.377-1.557c-0.218-0.716-0.504-1.401-0.851-2.05l1.993-4.192c-0.725-0.91-1.549-1.734-2.458-2.459l-4.193,1.994c-0.647-0.347-1.334-0.632-2.049-0.849l-1.558-4.378C17.165,0.708,16.588,0.667,16,0.667s-1.166,0.041-1.737,0.105L12.707,5.15c-0.716,0.217-1.401,0.502-2.05,0.849L6.464,4.005C5.554,4.73,4.73,5.554,4.005,6.464l1.994,4.192c-0.347,0.648-0.632,1.334-0.849,2.05l-4.378,1.557C0.708,14.834,0.667,15.412,0.667,16s0.041,1.165,0.105,1.736l4.378,1.558c0.217,0.715,0.502,1.401,0.849,2.049l-1.994,4.193c0.725,0.909,1.549,1.733,2.459,2.458l4.192-1.993c0.648,0.347,1.334,0.633,2.05,0.851l1.557,4.377c0.571,0.064,1.148,0.104,1.737,0.104c0.588,0,1.165-0.04,1.736-0.104l1.558-4.377c0.715-0.218,1.399-0.504,2.049-0.851l4.193,1.993c0.909-0.725,1.733-1.549,2.458-2.458l-1.993-4.193c0.347-0.647,0.633-1.334,0.851-2.049L31.229,17.736zM16,20.871c-2.69,0-4.872-2.182-4.872-4.871c0-2.69,2.182-4.872,4.872-4.872c2.689,0,4.871,2.182,4.871,4.872C20.871,18.689,18.689,20.871,16,20.871z"></path><title>Link options.</title></g></g></g></g><g   id="j_264" ><path  stroke="#aaaaaa" d="M 1337 2320 L 978 2620" id="v-3033" stroke-width="2" stroke-dasharray="30 30" fill="none" style="opacity: 1;"></path><path  fill="black" stroke="black" d="M 0 0 0 0" transform="matrix(-0.7669046436533756,0.6417610673318295,-0.6417610673318295,-0.7669046436533756,1336.75,2320)"></path><path  fill="#aaaaaa" stroke="#aaaaaa" d="M 20 0 L 0 10 L 20 20 z" id="v-3035" transform="matrix(0.7669044727420381,-0.6417612715708673,0.6417612715708673,0.7669044727420381,971.8324099396834,2612.3308433789134)" style="opacity: 1;"></path><path  d="M 1337 2320 L 978 2620" id="v-3034" fill="none" style="cursor: auto; pointer-events: visiblepainted;"></path><g ><g id="v-3027"  label-idx="0" cursor="move" transform="matrix(1,0,0,1,1157.5,2470)" style="cursor: default; opacity: 1;"><rect joint-selector="rect" id="v-3030" fill="#111111" rx="3" ry="3" pointer-events="none" width="146.83570861816406" height="61.7027587890625" transform="matrix(1,0,0,1,-71.7,-30.9)"></rect><text joint-selector="text" id="v-3029" font-size="24px" xml:space="preserve" y="0.8em" fill="#aaaaaa" text-anchor="middle" pointer-events="none" font-family="Open Sans" font-weight="normal" transform="matrix(1,0,0,1,0,-24.5)"><tspan dy="0" >Reports New</tspan><tspan dy="1.2em" x="0" >Booking</tspan></text></g><g id="v-3028"  label-idx="1" cursor="move" transform="matrix(1,0,0,1,1147.5,2512)" style="cursor: default; opacity: 1;"><rect joint-selector="rect" id="v-3032" fill="#ffffff" rx="3" ry="3"  width="0" height="0" transform="matrix(1,0,0,1,0,0)" display="none"></rect><text joint-selector="text" id="v-3031" fill="#000000" font-size="14" text-anchor="middle" pointer-events="none"></text></g></g><g  display="none" style="display: none;"></g><g  id="v-3037" display="none"><g  id="v-3025"><path  end="source" d="M 26 0 L 0 13 L 26 26 z"></path></g><g  id="v-3026"><path  end="target" d="M 26 0 L 0 13 L 26 26 z"></path></g></g><g  id="v-3036" display="none"><g  id="v-3024" transform="translate(1306.3062177489203, 2345.649400209816) "><g  event="remove"><circle r="11"></circle><path transform="scale(.8) translate(-16, -16)" d="M24.778,21.419 19.276,15.917 24.777,10.415 21.949,7.585 16.447,13.087 10.945,7.585 8.117,10.415 13.618,15.917 8.116,21.419 10.946,24.248 16.447,18.746 21.948,24.248z"></path><title>Remove link.</title></g><g  event="link:options"><circle r="11" transform="translate(25)"></circle><path fill="white" transform="scale(.55) translate(29, -16)" d="M31.229,17.736c0.064-0.571,0.104-1.148,0.104-1.736s-0.04-1.166-0.104-1.737l-4.377-1.557c-0.218-0.716-0.504-1.401-0.851-2.05l1.993-4.192c-0.725-0.91-1.549-1.734-2.458-2.459l-4.193,1.994c-0.647-0.347-1.334-0.632-2.049-0.849l-1.558-4.378C17.165,0.708,16.588,0.667,16,0.667s-1.166,0.041-1.737,0.105L12.707,5.15c-0.716,0.217-1.401,0.502-2.05,0.849L6.464,4.005C5.554,4.73,4.73,5.554,4.005,6.464l1.994,4.192c-0.347,0.648-0.632,1.334-0.849,2.05l-4.378,1.557C0.708,14.834,0.667,15.412,0.667,16s0.041,1.165,0.105,1.736l4.378,1.558c0.217,0.715,0.502,1.401,0.849,2.049l-1.994,4.193c0.725,0.909,1.549,1.733,2.459,2.458l4.192-1.993c0.648,0.347,1.334,0.633,2.05,0.851l1.557,4.377c0.571,0.064,1.148,0.104,1.737,0.104c0.588,0,1.165-0.04,1.736-0.104l1.558-4.377c0.715-0.218,1.399-0.504,2.049-0.851l4.193,1.993c0.909-0.725,1.733-1.549,2.458-2.458l-1.993-4.193c0.347-0.647,0.633-1.334,0.851-2.049L31.229,17.736zM16,20.871c-2.69,0-4.872-2.182-4.872-4.871c0-2.69,2.182-4.872,4.872-4.872c2.689,0,4.871,2.182,4.871,4.872C20.871,18.689,18.689,20.871,16,20.871z"></path><title>Link options.</title></g></g></g></g><g   id="j_265" ><path  stroke="#aaaaaa" d="M 649 505 L 1199 835" id="v-3047" stroke-width="2" stroke-dasharray="30 30" fill="none" style="opacity: 1;"></path><path  fill="black" stroke="black" d="M 0 0 0 0" transform="matrix(0.8574929254502867,0.5144957558646223,-0.5144957558646223,0.8574929254502867,649,505)"></path><path  fill="#aaaaaa" stroke="#aaaaaa" d="M 20 0 L 0 10 L 20 20 z" id="v-3049" transform="matrix(-0.8574928911956579,-0.5144958129556659,0.5144958129556659,-0.8574928911956579,1193.855019610525,843.5749285454195)" style="opacity: 1;"></path><path  d="M 649 505 L 1199 835" id="v-3048" fill="none" style="cursor: auto; pointer-events: visiblepainted;"></path><g ><g id="v-3041"  label-idx="0" cursor="move" transform="matrix(1,0,0,1,924,670)" style="cursor: default; opacity: 1;"><rect joint-selector="rect" id="v-3044" fill="#111111" rx="3" ry="3" pointer-events="none" width="85.35285186767578" height="32.90275573730469" transform="matrix(1,0,0,1,-41.1,-16.5)"></rect><text joint-selector="text" id="v-3043" font-size="24px" xml:space="preserve" y="0.8em" fill="#aaaaaa" text-anchor="middle" pointer-events="none" font-family="Open Sans" font-weight="normal" transform="matrix(1,0,0,1,0,-10.1)"><tspan dy="0" >Proxies</tspan></text></g><g id="v-3042"  label-idx="1" cursor="move" transform="matrix(1,0,0,1,914,697)" style="cursor: default; opacity: 1;"><rect joint-selector="rect" id="v-3046" fill="#ffffff" rx="3" ry="3"  width="0" height="0" transform="matrix(1,0,0,1,0,0)" display="none"></rect><text joint-selector="text" id="v-3045" fill="#000000" font-size="14" text-anchor="middle" pointer-events="none"></text></g></g><g  display="none" style="display: none;"></g><g  id="v-3051" display="none"><g  id="v-3039"><path  end="source" d="M 26 0 L 0 13 L 26 26 z"></path></g><g  id="v-3040"><path  end="target" d="M 26 0 L 0 13 L 26 26 z"></path></g></g><g  id="v-3050" display="none"><g  id="v-3038" transform="translate(683.2997170285017, 525.5798302171011) "><g  event="remove"><circle r="11"></circle><path transform="scale(.8) translate(-16, -16)" d="M24.778,21.419 19.276,15.917 24.777,10.415 21.949,7.585 16.447,13.087 10.945,7.585 8.117,10.415 13.618,15.917 8.116,21.419 10.946,24.248 16.447,18.746 21.948,24.248z"></path><title>Remove link.</title></g><g  event="link:options"><circle r="11" transform="translate(25)"></circle><path fill="white" transform="scale(.55) translate(29, -16)" d="M31.229,17.736c0.064-0.571,0.104-1.148,0.104-1.736s-0.04-1.166-0.104-1.737l-4.377-1.557c-0.218-0.716-0.504-1.401-0.851-2.05l1.993-4.192c-0.725-0.91-1.549-1.734-2.458-2.459l-4.193,1.994c-0.647-0.347-1.334-0.632-2.049-0.849l-1.558-4.378C17.165,0.708,16.588,0.667,16,0.667s-1.166,0.041-1.737,0.105L12.707,5.15c-0.716,0.217-1.401,0.502-2.05,0.849L6.464,4.005C5.554,4.73,4.73,5.554,4.005,6.464l1.994,4.192c-0.347,0.648-0.632,1.334-0.849,2.05l-4.378,1.557C0.708,14.834,0.667,15.412,0.667,16s0.041,1.165,0.105,1.736l4.378,1.558c0.217,0.715,0.502,1.401,0.849,2.049l-1.994,4.193c0.725,0.909,1.549,1.733,2.459,2.458l4.192-1.993c0.648,0.347,1.334,0.633,2.05,0.851l1.557,4.377c0.571,0.064,1.148,0.104,1.737,0.104c0.588,0,1.165-0.04,1.736-0.104l1.558-4.377c0.715-0.218,1.399-0.504,2.049-0.851l4.193,1.993c0.909-0.725,1.733-1.549,2.458-2.458l-1.993-4.193c0.347-0.647,0.633-1.334,0.851-2.049L31.229,17.736zM16,20.871c-2.69,0-4.872-2.182-4.872-4.871c0-2.69,2.182-4.872,4.872-4.872c2.689,0,4.871,2.182,4.871,4.872C20.871,18.689,18.689,20.871,16,20.871z"></path><title>Link options.</title></g></g></g></g><g   id="j_266" ><path  stroke="#aaaaaa" d="M 2258 1660 L 2117 1716 C 2111 1718.6666666666665 2105 1720.9999999999998 2099 1723 L 991 2095" id="v-3062" stroke-width="2" stroke-dasharray="30 30" fill="none" style="opacity: 1;"></path><path  fill="black" stroke="black" d="M 0 0 0 0" transform="matrix(-0.928476707906966,0.37139063379983406,-0.37139063379983406,-0.928476707906966,2258,1660)"></path><path  fill="#aaaaaa" stroke="#aaaaaa" d="M 20 0 L 0 10 L 20 20 z" id="v-3064" transform="matrix(0.9481172668504689,-0.317920820802911,0.317920820802911,0.9481172668504689,987.8208202953412,2085.0688851488994)" style="opacity: 1;"></path><path  d="M 2258 1660 L 2117 1716 C 2111 1718.6666666666665 2105 1720.9999999999998 2099 1723 L 991 2095" id="v-3063" fill="none" style="cursor: auto; pointer-events: visiblepainted;"></path><g ><g id="v-3056"  label-idx="0" cursor="move" transform="matrix(1,0,0,1,1626.0697021484375,1881.7816162109375)" style="cursor: default; opacity: 1;"><rect joint-selector="rect" id="v-3059" fill="#111111" rx="3" ry="3" pointer-events="none" width="55.83143997192383" height="32.90275573730469" transform="matrix(1,0,0,1,-26.3,-16.5)"></rect><text joint-selector="text" id="v-3058" font-size="24px" xml:space="preserve" y="0.8em" fill="#aaaaaa" text-anchor="middle" pointer-events="none" font-family="Open Sans" font-weight="normal" transform="matrix(1,0,0,1,0,-10.1)"><tspan dy="0" >polls</tspan></text></g><g id="v-3057"  label-idx="1" cursor="move" transform="matrix(1,0,0,1,1616.0697021484375,1908.7816162109375)" style="cursor: default; opacity: 1;"><rect joint-selector="rect" id="v-3061" fill="#ffffff" rx="3" ry="3"  width="0" height="0" transform="matrix(1,0,0,1,0,0)" display="none"></rect><text joint-selector="text" id="v-3060" fill="#000000" font-size="14" text-anchor="middle" pointer-events="none"></text></g></g><g  display="none" style="display: none;"><g  transform="translate(2108, 1720)" id="v-3053"><circle  idx="0" r="10"></circle><path  idx="0" d="M16,5.333c-7.732,0-14,4.701-14,10.5c0,1.982,0.741,3.833,2.016,5.414L2,25.667l5.613-1.441c2.339,1.317,5.237,2.107,8.387,2.107c7.732,0,14-4.701,14-10.5C30,10.034,23.732,5.333,16,5.333z" transform="translate(5, -33)"></path><path  idx="0" transform="scale(.8) translate(9.5, -37)" d="M24.778,21.419 19.276,15.917 24.777,10.415 21.949,7.585 16.447,13.087 10.945,7.585 8.117,10.415 13.618,15.917 8.116,21.419 10.946,24.248 16.447,18.746 21.948,24.248z"><title>Remove vertex.</title></path></g></g><g  id="v-3066" display="none"><g  id="v-3054"><path  end="source" d="M 26 0 L 0 13 L 26 26 z"></path></g><g  id="v-3055"><path  end="target" d="M 26 0 L 0 13 L 26 26 z"></path></g></g><g  id="v-3065" display="none"><g  id="v-3052" transform="translate(2220.824677468894, 1674.7646671045525) "><g  event="remove"><circle r="11"></circle><path transform="scale(.8) translate(-16, -16)" d="M24.778,21.419 19.276,15.917 24.777,10.415 21.949,7.585 16.447,13.087 10.945,7.585 8.117,10.415 13.618,15.917 8.116,21.419 10.946,24.248 16.447,18.746 21.948,24.248z"></path><title>Remove link.</title></g><g  event="link:options"><circle r="11" transform="translate(25)"></circle><path fill="white" transform="scale(.55) translate(29, -16)" d="M31.229,17.736c0.064-0.571,0.104-1.148,0.104-1.736s-0.04-1.166-0.104-1.737l-4.377-1.557c-0.218-0.716-0.504-1.401-0.851-2.05l1.993-4.192c-0.725-0.91-1.549-1.734-2.458-2.459l-4.193,1.994c-0.647-0.347-1.334-0.632-2.049-0.849l-1.558-4.378C17.165,0.708,16.588,0.667,16,0.667s-1.166,0.041-1.737,0.105L12.707,5.15c-0.716,0.217-1.401,0.502-2.05,0.849L6.464,4.005C5.554,4.73,4.73,5.554,4.005,6.464l1.994,4.192c-0.347,0.648-0.632,1.334-0.849,2.05l-4.378,1.557C0.708,14.834,0.667,15.412,0.667,16s0.041,1.165,0.105,1.736l4.378,1.558c0.217,0.715,0.502,1.401,0.849,2.049l-1.994,4.193c0.725,0.909,1.549,1.733,2.459,2.458l4.192-1.993c0.648,0.347,1.334,0.633,2.05,0.851l1.557,4.377c0.571,0.064,1.148,0.104,1.737,0.104c0.588,0,1.165-0.04,1.736-0.104l1.558-4.377c0.715-0.218,1.399-0.504,2.049-0.851l4.193,1.993c0.909-0.725,1.733-1.549,2.458-2.458l-1.993-4.193c0.347-0.647,0.633-1.334,0.851-2.049L31.229,17.736zM16,20.871c-2.69,0-4.872-2.182-4.872-4.871c0-2.69,2.182-4.872,4.872-4.872c2.689,0,4.871,2.182,4.871,4.872C20.871,18.689,18.689,20.871,16,20.871z"></path><title>Link options.</title></g></g></g></g><g   id="j_267" ><path  stroke="#aaaaaa" d="M 1402 1120 L 1359 1410 C 1358.3333333333333 1416.6666666666665 1358 1423.3333333333333 1358 1430 L 1358 1710 C 1358 1716.6666666666665 1359 1722.9999999999998 1361 1729 L 1463 2020" id="v-3081" stroke-width="2" stroke-dasharray="30 30" fill="none" style="opacity: 1;"></path><path  fill="black" stroke="black" d="M 0 0 0 0" transform="matrix(-0.1451142457003525,0.989414905737132,-0.989414905737132,-0.1451142457003525,1402,1120)"></path><path  fill="#aaaaaa" stroke="#aaaaaa" d="M 20 0 L 0 10 L 20 20 z" id="v-3083" transform="matrix(-0.331274918839142,-0.9435342750256187,0.9435342750256187,-0.331274918839142,1453.8946183521978,2023.3127892042726)" style="opacity: 1;"></path><path  d="M 1402 1120 L 1359 1410 C 1358.3333333333333 1416.6666666666665 1358 1423.3333333333333 1358 1430 L 1358 1710 C 1358 1716.6666666666665 1359 1722.9999999999998 1361 1729 L 1463 2020" id="v-3082" fill="none" style="cursor: auto; pointer-events: visiblepainted;"></path><g ><g id="v-3075"  label-idx="0" cursor="move" transform="matrix(1,0,0,1,1358,1577.2347412109375)" style="cursor: default; opacity: 1;"><rect joint-selector="rect" id="v-3078" fill="#111111" rx="3" ry="3" pointer-events="none" width="200.5712432861328" height="61.7027587890625" transform="matrix(1,0,0,1,-98.5,-30.9)"></rect><text joint-selector="text" id="v-3077" font-size="24px" xml:space="preserve" y="0.8em" fill="#aaaaaa" text-anchor="middle" pointer-events="none" font-family="Open Sans" font-weight="normal" transform="matrix(1,0,0,1,0,-24.5)"><tspan dy="0" >manual email trip</tspan><tspan dy="1.2em" x="0" >update</tspan></text></g><g id="v-3076"  label-idx="1" cursor="move" transform="matrix(1,0,0,1,1348,1619.2347412109375)" style="cursor: default; opacity: 1;"><rect joint-selector="rect" id="v-3080" fill="#ffffff" rx="3" ry="3"  width="0" height="0" transform="matrix(1,0,0,1,0,0)" display="none"></rect><text joint-selector="text" id="v-3079" fill="#000000" font-size="14" text-anchor="middle" pointer-events="none"></text></g></g><g  display="none" style="display: none;"><g  transform="translate(1358, 1420)" id="v-3071"><circle  idx="0" r="10"></circle><path  idx="0" d="M16,5.333c-7.732,0-14,4.701-14,10.5c0,1.982,0.741,3.833,2.016,5.414L2,25.667l5.613-1.441c2.339,1.317,5.237,2.107,8.387,2.107c7.732,0,14-4.701,14-10.5C30,10.034,23.732,5.333,16,5.333z" transform="translate(5, -33)"></path><path  idx="0" transform="scale(.8) translate(9.5, -37)" d="M24.778,21.419 19.276,15.917 24.777,10.415 21.949,7.585 16.447,13.087 10.945,7.585 8.117,10.415 13.618,15.917 8.116,21.419 10.946,24.248 16.447,18.746 21.948,24.248z"><title>Remove vertex.</title></path></g><g  transform="translate(1358, 1720)" id="v-3072"><circle  idx="1" r="10"></circle><path  idx="1" d="M16,5.333c-7.732,0-14,4.701-14,10.5c0,1.982,0.741,3.833,2.016,5.414L2,25.667l5.613-1.441c2.339,1.317,5.237,2.107,8.387,2.107c7.732,0,14-4.701,14-10.5C30,10.034,23.732,5.333,16,5.333z" transform="translate(5, -33)"></path><path  idx="1" transform="scale(.8) translate(9.5, -37)" d="M24.778,21.419 19.276,15.917 24.777,10.415 21.949,7.585 16.447,13.087 10.945,7.585 8.117,10.415 13.618,15.917 8.116,21.419 10.946,24.248 16.447,18.746 21.948,24.248z"><title>Remove vertex.</title></path></g></g><g  id="v-3085" display="none"><g  id="v-3073"><path  end="source" d="M 26 0 L 0 13 L 26 26 z"></path></g><g  id="v-3074"><path  end="target" d="M 26 0 L 0 13 L 26 26 z"></path></g></g><g  id="v-3084" display="none"><g  id="v-3070" transform="translate(1396.1331088211173, 1159.5674056250236) "><g  event="remove"><circle r="11"></circle><path transform="scale(.8) translate(-16, -16)" d="M24.778,21.419 19.276,15.917 24.777,10.415 21.949,7.585 16.447,13.087 10.945,7.585 8.117,10.415 13.618,15.917 8.116,21.419 10.946,24.248 16.447,18.746 21.948,24.248z"></path><title>Remove link.</title></g><g  event="link:options"><circle r="11" transform="translate(25)"></circle><path fill="white" transform="scale(.55) translate(29, -16)" d="M31.229,17.736c0.064-0.571,0.104-1.148,0.104-1.736s-0.04-1.166-0.104-1.737l-4.377-1.557c-0.218-0.716-0.504-1.401-0.851-2.05l1.993-4.192c-0.725-0.91-1.549-1.734-2.458-2.459l-4.193,1.994c-0.647-0.347-1.334-0.632-2.049-0.849l-1.558-4.378C17.165,0.708,16.588,0.667,16,0.667s-1.166,0.041-1.737,0.105L12.707,5.15c-0.716,0.217-1.401,0.502-2.05,0.849L6.464,4.005C5.554,4.73,4.73,5.554,4.005,6.464l1.994,4.192c-0.347,0.648-0.632,1.334-0.849,2.05l-4.378,1.557C0.708,14.834,0.667,15.412,0.667,16s0.041,1.165,0.105,1.736l4.378,1.558c0.217,0.715,0.502,1.401,0.849,2.049l-1.994,4.193c0.725,0.909,1.549,1.733,2.459,2.458l4.192-1.993c0.648,0.347,1.334,0.633,2.05,0.851l1.557,4.377c0.571,0.064,1.148,0.104,1.737,0.104c0.588,0,1.165-0.04,1.736-0.104l1.558-4.377c0.715-0.218,1.399-0.504,2.049-0.851l4.193,1.993c0.909-0.725,1.733-1.549,2.458-2.458l-1.993-4.193c0.347-0.647,0.633-1.334,0.851-2.049L31.229,17.736zM16,20.871c-2.69,0-4.872-2.182-4.872-4.871c0-2.69,2.182-4.872,4.872-4.872c2.689,0,4.871,2.182,4.871,4.872C20.871,18.689,18.689,20.871,16,20.871z"></path><title>Link options.</title></g></g></g></g><g   id="j_268" ><path  stroke="#aaaaaa" d="M 1342 1120 L 848 2020" id="v-3095" stroke-width="2" stroke-dasharray="30 30" fill="none" style="opacity: 1;"></path><path  fill="black" stroke="black" d="M 0 0 0 0" transform="matrix(-0.4807963644981216,0.8768322849241977,-0.8768322849241977,-0.4807963644981216,1341.75,1120)"></path><path  fill="#aaaaaa" stroke="#aaaaaa" d="M 20 0 L 0 10 L 20 20 z" id="v-3097" transform="matrix(0.4807963644981211,-0.876832284924198,0.876832284924198,0.4807963644981211,839.4816969042143,2015.1920486573858)" style="opacity: 1;"></path><path  d="M 1342 1120 L 848 2020" id="v-3096" fill="none" style="cursor: auto; pointer-events: visiblepainted;"></path><g ><g id="v-3089"  label-idx="0" cursor="move" transform="matrix(1,0,0,1,1095,1570)" style="cursor: default; opacity: 1;"><rect joint-selector="rect" id="v-3092" fill="#111111" rx="3" ry="3" pointer-events="none" width="104.67459106445312" height="32.90275573730469" transform="matrix(1,0,0,1,-50.8,-16.5)"></rect><text joint-selector="text" id="v-3091" font-size="24px" xml:space="preserve" y="0.8em" fill="#aaaaaa" text-anchor="middle" pointer-events="none" font-family="Open Sans" font-weight="normal" transform="matrix(1,0,0,1,0,-10.1)"><tspan dy="0" >manages</tspan></text></g><g id="v-3090"  label-idx="1" cursor="move" transform="matrix(1,0,0,1,1085,1597)" style="cursor: default; opacity: 1;"><rect joint-selector="rect" id="v-3094" fill="#ffffff" rx="3" ry="3"  width="0" height="0" transform="matrix(1,0,0,1,0,0)" display="none"></rect><text joint-selector="text" id="v-3093" fill="#000000" font-size="14" text-anchor="middle" pointer-events="none"></text></g></g><g  display="none" style="display: none;"></g><g  id="v-3099" display="none"><g  id="v-3087"><path  end="source" d="M 26 0 L 0 13 L 26 26 z"></path></g><g  id="v-3088"><path  end="target" d="M 26 0 L 0 13 L 26 26 z"></path></g></g><g  id="v-3098" display="none"><g  id="v-3086" transform="translate(1322.7531696553995, 1155.0650755266001) "><g  event="remove"><circle r="11"></circle><path transform="scale(.8) translate(-16, -16)" d="M24.778,21.419 19.276,15.917 24.777,10.415 21.949,7.585 16.447,13.087 10.945,7.585 8.117,10.415 13.618,15.917 8.116,21.419 10.946,24.248 16.447,18.746 21.948,24.248z"></path><title>Remove link.</title></g><g  event="link:options"><circle r="11" transform="translate(25)"></circle><path fill="white" transform="scale(.55) translate(29, -16)" d="M31.229,17.736c0.064-0.571,0.104-1.148,0.104-1.736s-0.04-1.166-0.104-1.737l-4.377-1.557c-0.218-0.716-0.504-1.401-0.851-2.05l1.993-4.192c-0.725-0.91-1.549-1.734-2.458-2.459l-4.193,1.994c-0.647-0.347-1.334-0.632-2.049-0.849l-1.558-4.378C17.165,0.708,16.588,0.667,16,0.667s-1.166,0.041-1.737,0.105L12.707,5.15c-0.716,0.217-1.401,0.502-2.05,0.849L6.464,4.005C5.554,4.73,4.73,5.554,4.005,6.464l1.994,4.192c-0.347,0.648-0.632,1.334-0.849,2.05l-4.378,1.557C0.708,14.834,0.667,15.412,0.667,16s0.041,1.165,0.105,1.736l4.378,1.558c0.217,0.715,0.502,1.401,0.849,2.049l-1.994,4.193c0.725,0.909,1.549,1.733,2.459,2.458l4.192-1.993c0.648,0.347,1.334,0.633,2.05,0.851l1.557,4.377c0.571,0.064,1.148,0.104,1.737,0.104c0.588,0,1.165-0.04,1.736-0.104l1.558-4.377c0.715-0.218,1.399-0.504,2.049-0.851l4.193,1.993c0.909-0.725,1.733-1.549,2.458-2.458l-1.993-4.193c0.347-0.647,0.633-1.334,0.851-2.049L31.229,17.736zM16,20.871c-2.69,0-4.872-2.182-4.872-4.871c0-2.69,2.182-4.872,4.872-4.872c2.689,0,4.871,2.182,4.871,4.872C20.871,18.689,18.689,20.871,16,20.871z"></path><title>Link options.</title></g></g></g></g><g   id="j_269" ><path  stroke="#aaaaaa" d="M 2296 1120 L 1921 1420" id="v-3112" stroke-width="2" stroke-dasharray="30 30" fill="none" style="opacity: 1;"></path><path  fill="black" stroke="black" d="M 0 0 0 0" transform="matrix(-0.7808688416748546,0.6246950072646418,-0.6246950072646418,-0.7808688416748546,2295.5,1120)"></path><path  fill="#aaaaaa" stroke="#aaaaaa" d="M 20 0 L 0 10 L 20 20 z" id="v-3114" transform="matrix(0.7808686753084834,-0.624695215222571,0.624695215222571,0.7808686753084834,1914.2530769150019,1412.1913171569533)" style="opacity: 1;"></path><path  d="M 2296 1120 L 1921 1420" id="v-3113" fill="none" style="cursor: auto; pointer-events: visiblepainted;"></path><g ><g id="v-3106"  label-idx="0" cursor="move" transform="matrix(1,0,0,1,2108.5,1270)" style="cursor: default; opacity: 1;"><rect joint-selector="rect" id="v-3109" fill="#111111" rx="3" ry="3" pointer-events="none" width="153.52919006347656" height="32.90275573730469" transform="matrix(1,0,0,1,-76.2,-16.5)"></rect><text joint-selector="text" id="v-3108" font-size="24px" xml:space="preserve" y="0.8em" fill="#aaaaaa" text-anchor="middle" pointer-events="none" font-family="Open Sans" font-weight="normal" transform="matrix(1,0,0,1,0,-10.1)"><tspan dy="0" >updates state</tspan></text></g><g id="v-3107"  label-idx="1" cursor="move" transform="matrix(1,0,0,1,2098.5,1297)" style="cursor: default; opacity: 1;"><rect joint-selector="rect" id="v-3111" fill="#ffffff" rx="3" ry="3"  width="0" height="0" transform="matrix(1,0,0,1,0,0)" display="none"></rect><text joint-selector="text" id="v-3110" fill="#000000" font-size="14" text-anchor="middle" pointer-events="none"></text></g></g><g  display="none" style="display: none;"></g><g  id="v-3116" display="none"><g  id="v-3104"><path  end="source" d="M 26 0 L 0 13 L 26 26 z"></path></g><g  id="v-3105"><path  end="target" d="M 26 0 L 0 13 L 26 26 z"></path></g></g><g  id="v-3115" display="none"><g  id="v-3103" transform="translate(2264.765247622279, 1144.987801902177) "><g  event="remove"><circle r="11"></circle><path transform="scale(.8) translate(-16, -16)" d="M24.778,21.419 19.276,15.917 24.777,10.415 21.949,7.585 16.447,13.087 10.945,7.585 8.117,10.415 13.618,15.917 8.116,21.419 10.946,24.248 16.447,18.746 21.948,24.248z"></path><title>Remove link.</title></g><g  event="link:options"><circle r="11" transform="translate(25)"></circle><path fill="white" transform="scale(.55) translate(29, -16)" d="M31.229,17.736c0.064-0.571,0.104-1.148,0.104-1.736s-0.04-1.166-0.104-1.737l-4.377-1.557c-0.218-0.716-0.504-1.401-0.851-2.05l1.993-4.192c-0.725-0.91-1.549-1.734-2.458-2.459l-4.193,1.994c-0.647-0.347-1.334-0.632-2.049-0.849l-1.558-4.378C17.165,0.708,16.588,0.667,16,0.667s-1.166,0.041-1.737,0.105L12.707,5.15c-0.716,0.217-1.401,0.502-2.05,0.849L6.464,4.005C5.554,4.73,4.73,5.554,4.005,6.464l1.994,4.192c-0.347,0.648-0.632,1.334-0.849,2.05l-4.378,1.557C0.708,14.834,0.667,15.412,0.667,16s0.041,1.165,0.105,1.736l4.378,1.558c0.217,0.715,0.502,1.401,0.849,2.049l-1.994,4.193c0.725,0.909,1.549,1.733,2.459,2.458l4.192-1.993c0.648,0.347,1.334,0.633,2.05,0.851l1.557,4.377c0.571,0.064,1.148,0.104,1.737,0.104c0.588,0,1.165-0.04,1.736-0.104l1.558-4.377c0.715-0.218,1.399-0.504,2.049-0.851l4.193,1.993c0.909-0.725,1.733-1.549,2.458-2.458l-1.993-4.193c0.347-0.647,0.633-1.334,0.851-2.049L31.229,17.736zM16,20.871c-2.69,0-4.872-2.182-4.872-4.871c0-2.69,2.182-4.872,4.872-4.872c2.689,0,4.871,2.182,4.871,4.872C20.871,18.689,18.689,20.871,16,20.871z"></path><title>Link options.</title></g></g></g></g><g   id="j_270" ><path  stroke="#aaaaaa" d="M 2483 1120 L 2483 1420" id="v-3126" stroke-width="2" stroke-dasharray="30 30" fill="none" style="opacity: 1;"></path><path  fill="black" stroke="black" d="M 0 0 0 0" transform="matrix(6.123233995736766e-17,1,-1,6.123233995736766e-17,2483,1120)"></path><path  fill="#aaaaaa" stroke="#aaaaaa" d="M 20 0 L 0 10 L 20 20 z" id="v-3128" transform="matrix(-1.8369701987210297e-16,-1,1,-1.8369701987210297e-16,2473,1420)" style="opacity: 1;"></path><path  d="M 2483 1120 L 2483 1420" id="v-3127" fill="none" style="cursor: auto; pointer-events: visiblepainted;"></path><g ><g id="v-3120"  label-idx="0" cursor="move" transform="matrix(1,0,0,1,2483,1270)" style="cursor: default; opacity: 1;"><rect joint-selector="rect" id="v-3123" fill="#111111" rx="3" ry="3" pointer-events="none" width="114.6164779663086" height="32.90275573730469" transform="matrix(1,0,0,1,-55.7,-16.5)"></rect><text joint-selector="text" id="v-3122" font-size="24px" xml:space="preserve" y="0.8em" fill="#aaaaaa" text-anchor="middle" pointer-events="none" font-family="Open Sans" font-weight="normal" transform="matrix(1,0,0,1,0,-10.1)"><tspan dy="0" >schedules</tspan></text></g><g id="v-3121"  label-idx="1" cursor="move" transform="matrix(1,0,0,1,2473,1297)" style="cursor: default; opacity: 1;"><rect joint-selector="rect" id="v-3125" fill="#ffffff" rx="3" ry="3"  width="0" height="0" transform="matrix(1,0,0,1,0,0)" display="none"></rect><text joint-selector="text" id="v-3124" fill="#000000" font-size="14" text-anchor="middle" pointer-events="none"></text></g></g><g  display="none" style="display: none;"></g><g  id="v-3130" display="none"><g  id="v-3118"><path  end="source" d="M 26 0 L 0 13 L 26 26 z"></path></g><g  id="v-3119"><path  end="target" d="M 26 0 L 0 13 L 26 26 z"></path></g></g><g  id="v-3129" display="none"><g  id="v-3117" transform="translate(2483, 1160) "><g  event="remove"><circle r="11"></circle><path transform="scale(.8) translate(-16, -16)" d="M24.778,21.419 19.276,15.917 24.777,10.415 21.949,7.585 16.447,13.087 10.945,7.585 8.117,10.415 13.618,15.917 8.116,21.419 10.946,24.248 16.447,18.746 21.948,24.248z"></path><title>Remove link.</title></g><g  event="link:options"><circle r="11" transform="translate(25)"></circle><path fill="white" transform="scale(.55) translate(29, -16)" d="M31.229,17.736c0.064-0.571,0.104-1.148,0.104-1.736s-0.04-1.166-0.104-1.737l-4.377-1.557c-0.218-0.716-0.504-1.401-0.851-2.05l1.993-4.192c-0.725-0.91-1.549-1.734-2.458-2.459l-4.193,1.994c-0.647-0.347-1.334-0.632-2.049-0.849l-1.558-4.378C17.165,0.708,16.588,0.667,16,0.667s-1.166,0.041-1.737,0.105L12.707,5.15c-0.716,0.217-1.401,0.502-2.05,0.849L6.464,4.005C5.554,4.73,4.73,5.554,4.005,6.464l1.994,4.192c-0.347,0.648-0.632,1.334-0.849,2.05l-4.378,1.557C0.708,14.834,0.667,15.412,0.667,16s0.041,1.165,0.105,1.736l4.378,1.558c0.217,0.715,0.502,1.401,0.849,2.049l-1.994,4.193c0.725,0.909,1.549,1.733,2.459,2.458l4.192-1.993c0.648,0.347,1.334,0.633,2.05,0.851l1.557,4.377c0.571,0.064,1.148,0.104,1.737,0.104c0.588,0,1.165-0.04,1.736-0.104l1.558-4.377c0.715-0.218,1.399-0.504,2.049-0.851l4.193,1.993c0.909-0.725,1.733-1.549,2.458-2.458l-1.993-4.193c0.347-0.647,0.633-1.334,0.851-2.049L31.229,17.736zM16,20.871c-2.69,0-4.872-2.182-4.872-4.871c0-2.69,2.182-4.872,4.872-4.872c2.689,0,4.871,2.182,4.871,4.872C20.871,18.689,18.689,20.871,16,20.871z"></path><title>Link options.</title></g></g></g></g><g   id="j_271" ><path  stroke="#aaaaaa" d="M 2156 520 L 1793 1420" id="v-3143" stroke-width="2" stroke-dasharray="30 30" fill="none" style="opacity: 1;"></path><path  fill="black" stroke="black" d="M 0 0 0 0" transform="matrix(-0.37338905911563064,0.9276748409506125,-0.9276748409506125,-0.37338905911563064,2155.6298828125,520)"></path><path  fill="#aaaaaa" stroke="#aaaaaa" d="M 20 0 L 0 10 L 20 20 z" id="v-3145" transform="matrix(0.3733889355882501,-0.927674890670365,0.927674890670365,0.3733889355882501,1784.1032533389764,1416.2661261523835)" style="opacity: 1;"></path><path  d="M 2156 520 L 1793 1420" id="v-3144" fill="none" style="cursor: auto; pointer-events: visiblepainted;"></path><g ><g id="v-3137"  label-idx="0" cursor="move" transform="matrix(1,0,0,1,1974.5,970)" style="cursor: default; opacity: 1;"><rect joint-selector="rect" id="v-3140" fill="#111111" rx="3" ry="3" pointer-events="none" width="153.52919006347656" height="32.90275573730469" transform="matrix(1,0,0,1,-76.2,-16.5)"></rect><text joint-selector="text" id="v-3139" font-size="24px" xml:space="preserve" y="0.8em" fill="#aaaaaa" text-anchor="middle" pointer-events="none" font-family="Open Sans" font-weight="normal" transform="matrix(1,0,0,1,0,-10.1)"><tspan dy="0" >updates state</tspan></text></g><g id="v-3138"  label-idx="1" cursor="move" transform="matrix(1,0,0,1,1964.5,997)" style="cursor: default; opacity: 1;"><rect joint-selector="rect" id="v-3142" fill="#ffffff" rx="3" ry="3"  width="0" height="0" transform="matrix(1,0,0,1,0,0)" display="none"></rect><text joint-selector="text" id="v-3141" fill="#000000" font-size="14" text-anchor="middle" pointer-events="none"></text></g></g><g  display="none" style="display: none;"></g><g  id="v-3147" display="none"><g  id="v-3135"><path  end="source" d="M 26 0 L 0 13 L 26 26 z"></path></g><g  id="v-3136"><path  end="target" d="M 26 0 L 0 13 L 26 26 z"></path></g></g><g  id="v-3146" display="none"><g  id="v-3134" transform="translate(2141.037835646759, 557.0962752559689) "><g  event="remove"><circle r="11"></circle><path transform="scale(.8) translate(-16, -16)" d="M24.778,21.419 19.276,15.917 24.777,10.415 21.949,7.585 16.447,13.087 10.945,7.585 8.117,10.415 13.618,15.917 8.116,21.419 10.946,24.248 16.447,18.746 21.948,24.248z"></path><title>Remove link.</title></g><g  event="link:options"><circle r="11" transform="translate(25)"></circle><path fill="white" transform="scale(.55) translate(29, -16)" d="M31.229,17.736c0.064-0.571,0.104-1.148,0.104-1.736s-0.04-1.166-0.104-1.737l-4.377-1.557c-0.218-0.716-0.504-1.401-0.851-2.05l1.993-4.192c-0.725-0.91-1.549-1.734-2.458-2.459l-4.193,1.994c-0.647-0.347-1.334-0.632-2.049-0.849l-1.558-4.378C17.165,0.708,16.588,0.667,16,0.667s-1.166,0.041-1.737,0.105L12.707,5.15c-0.716,0.217-1.401,0.502-2.05,0.849L6.464,4.005C5.554,4.73,4.73,5.554,4.005,6.464l1.994,4.192c-0.347,0.648-0.632,1.334-0.849,2.05l-4.378,1.557C0.708,14.834,0.667,15.412,0.667,16s0.041,1.165,0.105,1.736l4.378,1.558c0.217,0.715,0.502,1.401,0.849,2.049l-1.994,4.193c0.725,0.909,1.549,1.733,2.459,2.458l4.192-1.993c0.648,0.347,1.334,0.633,2.05,0.851l1.557,4.377c0.571,0.064,1.148,0.104,1.737,0.104c0.588,0,1.165-0.04,1.736-0.104l1.558-4.377c0.715-0.218,1.399-0.504,2.049-0.851l4.193,1.993c0.909-0.725,1.733-1.549,2.458-2.458l-1.993-4.193c0.347-0.647,0.633-1.334,0.851-2.049L31.229,17.736zM16,20.871c-2.69,0-4.872-2.182-4.872-4.871c0-2.69,2.182-4.872,4.872-4.872c2.689,0,4.871,2.182,4.871,4.872C20.871,18.689,18.689,20.871,16,20.871z"></path><title>Link options.</title></g></g></g></g><g   id="j_272" ><path  stroke="#aaaaaa" d="M 1501 1120 L 1656 1420" id="v-3160" stroke-width="2" stroke-dasharray="30 30" fill="none" style="opacity: 1;"></path><path  fill="black" stroke="black" d="M 0 0 0 0" transform="matrix(0.45785012061457075,0.8890293960568587,-0.8890293960568587,0.45785012061457075,1501.25,1120)"></path><path  fill="#aaaaaa" stroke="#aaaaaa" d="M 20 0 L 0 10 L 20 20 z" id="v-3162" transform="matrix(-0.45785023899599164,-0.8890293350904195,0.8890293350904195,-0.45785023899599164,1646.8597178281182,1424.5785369518017)" style="opacity: 1;"></path><path  d="M 1501 1120 L 1656 1420" id="v-3161" fill="none" style="cursor: auto; pointer-events: visiblepainted;"></path><g ><g id="v-3154"  label-idx="0" cursor="move" transform="matrix(1,0,0,1,1578.5,1270)" style="cursor: default; opacity: 1;"><rect joint-selector="rect" id="v-3157" fill="#111111" rx="3" ry="3" pointer-events="none" width="163.9630889892578" height="90.50275802612305" transform="matrix(1,0,0,1,-80.4,-45.3)"></rect><text joint-selector="text" id="v-3156" font-size="24px" xml:space="preserve" y="0.8em" fill="#aaaaaa" text-anchor="middle" pointer-events="none" font-family="Open Sans" font-weight="normal" transform="matrix(1,0,0,1,0,-38.9)"><tspan dy="0" >store user</tspan><tspan dy="1.2em" x="0" >specific email</tspan><tspan dy="1.2em" x="0" >configurations</tspan></text></g><g id="v-3155"  label-idx="1" cursor="move" transform="matrix(1,0,0,1,1568.5,1327)" style="cursor: default; opacity: 1;"><rect joint-selector="rect" id="v-3159" fill="#ffffff" rx="3" ry="3"  width="0" height="0" transform="matrix(1,0,0,1,0,0)" display="none"></rect><text joint-selector="text" id="v-3158" fill="#000000" font-size="14" text-anchor="middle" pointer-events="none"></text></g></g><g  display="none" style="display: none;"></g><g  id="v-3164" display="none"><g  id="v-3152"><path  end="source" d="M 26 0 L 0 13 L 26 26 z"></path></g><g  id="v-3153"><path  end="target" d="M 26 0 L 0 13 L 26 26 z"></path></g></g><g  id="v-3163" display="none"><g  id="v-3151" transform="translate(1519.3608020750535, 1155.5370362742972) "><g  event="remove"><circle r="11"></circle><path transform="scale(.8) translate(-16, -16)" d="M24.778,21.419 19.276,15.917 24.777,10.415 21.949,7.585 16.447,13.087 10.945,7.585 8.117,10.415 13.618,15.917 8.116,21.419 10.946,24.248 16.447,18.746 21.948,24.248z"></path><title>Remove link.</title></g><g  event="link:options"><circle r="11" transform="translate(25)"></circle><path fill="white" transform="scale(.55) translate(29, -16)" d="M31.229,17.736c0.064-0.571,0.104-1.148,0.104-1.736s-0.04-1.166-0.104-1.737l-4.377-1.557c-0.218-0.716-0.504-1.401-0.851-2.05l1.993-4.192c-0.725-0.91-1.549-1.734-2.458-2.459l-4.193,1.994c-0.647-0.347-1.334-0.632-2.049-0.849l-1.558-4.378C17.165,0.708,16.588,0.667,16,0.667s-1.166,0.041-1.737,0.105L12.707,5.15c-0.716,0.217-1.401,0.502-2.05,0.849L6.464,4.005C5.554,4.73,4.73,5.554,4.005,6.464l1.994,4.192c-0.347,0.648-0.632,1.334-0.849,2.05l-4.378,1.557C0.708,14.834,0.667,15.412,0.667,16s0.041,1.165,0.105,1.736l4.378,1.558c0.217,0.715,0.502,1.401,0.849,2.049l-1.994,4.193c0.725,0.909,1.549,1.733,2.459,2.458l4.192-1.993c0.648,0.347,1.334,0.633,2.05,0.851l1.557,4.377c0.571,0.064,1.148,0.104,1.737,0.104c0.588,0,1.165-0.04,1.736-0.104l1.558-4.377c0.715-0.218,1.399-0.504,2.049-0.851l4.193,1.993c0.909-0.725,1.733-1.549,2.458-2.458l-1.993-4.193c0.347-0.647,0.633-1.334,0.851-2.049L31.229,17.736zM16,20.871c-2.69,0-4.872-2.182-4.872-4.871c0-2.69,2.182-4.872,4.872-4.872c2.689,0,4.871,2.182,4.871,4.872C20.871,18.689,18.689,20.871,16,20.871z"></path><title>Link options.</title></g></g></g></g><g   id="j_273" ><path  stroke="#aaaaaa" d="M 2283 520 L 2416 820" id="v-3174" stroke-width="2" stroke-dasharray="30 30" fill="none" style="opacity: 1;"></path><path  fill="black" stroke="black" d="M 0 0 0 0" transform="matrix(0.40656231704604556,0.9136230526634881,-0.9136230526634881,0.40656231704604556,2282.75,520)"></path><path  fill="#aaaaaa" stroke="#aaaaaa" d="M 20 0 L 0 10 L 20 20 z" id="v-3176" transform="matrix(-0.40656219538977395,-0.913623106800527,0.913623106800527,-0.40656219538977395,2407.1137170577676,824.065622553153)" style="opacity: 1;"></path><path  d="M 2283 520 L 2416 820" id="v-3175" fill="none" style="cursor: auto; pointer-events: visiblepainted;"></path><g ><g id="v-3168"  label-idx="0" cursor="move" transform="matrix(1,0,0,1,2349.5,670)" style="cursor: default; opacity: 1;"><rect joint-selector="rect" id="v-3171" fill="#111111" rx="3" ry="3" pointer-events="none" width="104.67459106445312" height="32.90275573730469" transform="matrix(1,0,0,1,-50.8,-16.5)"></rect><text joint-selector="text" id="v-3170" font-size="24px" xml:space="preserve" y="0.8em" fill="#aaaaaa" text-anchor="middle" pointer-events="none" font-family="Open Sans" font-weight="normal" transform="matrix(1,0,0,1,0,-10.1)"><tspan dy="0" >manages</tspan></text></g><g id="v-3169"  label-idx="1" cursor="move" transform="matrix(1,0,0,1,2339.5,697)" style="cursor: default; opacity: 1;"><rect joint-selector="rect" id="v-3173" fill="#ffffff" rx="3" ry="3"  width="0" height="0" transform="matrix(1,0,0,1,0,0)" display="none"></rect><text joint-selector="text" id="v-3172" fill="#000000" font-size="14" text-anchor="middle" pointer-events="none"></text></g></g><g  display="none" style="display: none;"></g><g  id="v-3178" display="none"><g  id="v-3166"><path  end="source" d="M 26 0 L 0 13 L 26 26 z"></path></g><g  id="v-3167"><path  end="target" d="M 26 0 L 0 13 L 26 26 z"></path></g></g><g  id="v-3177" display="none"><g  id="v-3165" transform="translate(2299.211603011668, 556.5675255902291) "><g  event="remove"><circle r="11"></circle><path transform="scale(.8) translate(-16, -16)" d="M24.778,21.419 19.276,15.917 24.777,10.415 21.949,7.585 16.447,13.087 10.945,7.585 8.117,10.415 13.618,15.917 8.116,21.419 10.946,24.248 16.447,18.746 21.948,24.248z"></path><title>Remove link.</title></g><g  event="link:options"><circle r="11" transform="translate(25)"></circle><path fill="white" transform="scale(.55) translate(29, -16)" d="M31.229,17.736c0.064-0.571,0.104-1.148,0.104-1.736s-0.04-1.166-0.104-1.737l-4.377-1.557c-0.218-0.716-0.504-1.401-0.851-2.05l1.993-4.192c-0.725-0.91-1.549-1.734-2.458-2.459l-4.193,1.994c-0.647-0.347-1.334-0.632-2.049-0.849l-1.558-4.378C17.165,0.708,16.588,0.667,16,0.667s-1.166,0.041-1.737,0.105L12.707,5.15c-0.716,0.217-1.401,0.502-2.05,0.849L6.464,4.005C5.554,4.73,4.73,5.554,4.005,6.464l1.994,4.192c-0.347,0.648-0.632,1.334-0.849,2.05l-4.378,1.557C0.708,14.834,0.667,15.412,0.667,16s0.041,1.165,0.105,1.736l4.378,1.558c0.217,0.715,0.502,1.401,0.849,2.049l-1.994,4.193c0.725,0.909,1.549,1.733,2.459,2.458l4.192-1.993c0.648,0.347,1.334,0.633,2.05,0.851l1.557,4.377c0.571,0.064,1.148,0.104,1.737,0.104c0.588,0,1.165-0.04,1.736-0.104l1.558-4.377c0.715-0.218,1.399-0.504,2.049-0.851l4.193,1.993c0.909-0.725,1.733-1.549,2.458-2.458l-1.993-4.193c0.347-0.647,0.633-1.334,0.851-2.049L31.229,17.736zM16,20.871c-2.69,0-4.872-2.182-4.872-4.871c0-2.69,2.182-4.872,4.872-4.872c2.689,0,4.871,2.182,4.871,4.872C20.871,18.689,18.689,20.871,16,20.871z"></path><title>Link options.</title></g></g></g></g><g   id="j_274" ><path  stroke="#aaaaaa" d="M 421 520 L 391 2010 C 390.99999999999994 2016.6666666666665 390.99999999999994 2023.333333333333 391 2030 L 391 2414 C 390.99999999999994 2420.6666666666665 393.66666666666663 2426 399 2430 L 622 2620" id="v-3190" stroke-width="2" stroke-dasharray="30 30" fill="none" style="opacity: 1;"></path><path  fill="black" stroke="black" d="M 0 0 0 0" transform="matrix(-0.019995944389052042,0.9998000611162163,-0.9998000611162163,-0.019995944389052042,421,520)"></path><path  fill="#aaaaaa" stroke="#aaaaaa" d="M 20 0 L 0 10 L 20 20 z" id="v-3192" transform="matrix(-0.7626748407273588,-0.6467821018871023,0.6467821018871023,-0.7626748407273588,615.6521524860589,2627.6267959886445)" style="opacity: 1;"></path><path  d="M 421 520 L 391 2010 C 390.99999999999994 2016.6666666666665 390.99999999999994 2023.333333333333 391 2030 L 391 2414 C 390.99999999999994 2420.6666666666665 393.66666666666663 2426 399 2430 L 622 2620" id="v-3191" fill="none" style="cursor: auto; pointer-events: visiblepainted;"></path><g ><g id="v-3184"  label-idx="0" cursor="move" transform="matrix(1,0,0,1,398.7977294921875,1622.7132568359375)" style="cursor: default; opacity: 1;"><rect joint-selector="rect" id="v-3187" fill="#111111" rx="3" ry="3" pointer-events="none" width="85.35285186767578" height="32.90275573730469" transform="matrix(1,0,0,1,-41.1,-16.5)"></rect><text joint-selector="text" id="v-3186" font-size="24px" xml:space="preserve" y="0.8em" fill="#aaaaaa" text-anchor="middle" pointer-events="none" font-family="Open Sans" font-weight="normal" transform="matrix(1,0,0,1,0,-10.1)"><tspan dy="0" >Proxies</tspan></text></g><g id="v-3185"  label-idx="1" cursor="move" transform="matrix(1,0,0,1,388.7977294921875,1649.7132568359375)" style="cursor: default; opacity: 1;"><rect joint-selector="rect" id="v-3189" fill="#ffffff" rx="3" ry="3"  width="0" height="0" transform="matrix(1,0,0,1,0,0)" display="none"></rect><text joint-selector="text" id="v-3188" fill="#000000" font-size="14" text-anchor="middle" pointer-events="none"></text></g></g><g  display="none" style="display: none;"><g  transform="translate(391, 2020)" id="v-3180"><circle  idx="0" r="10"></circle><path  idx="0" d="M16,5.333c-7.732,0-14,4.701-14,10.5c0,1.982,0.741,3.833,2.016,5.414L2,25.667l5.613-1.441c2.339,1.317,5.237,2.107,8.387,2.107c7.732,0,14-4.701,14-10.5C30,10.034,23.732,5.333,16,5.333z" transform="translate(5, -33)"></path><path  idx="0" transform="scale(.8) translate(9.5, -37)" d="M24.778,21.419 19.276,15.917 24.777,10.415 21.949,7.585 16.447,13.087 10.945,7.585 8.117,10.415 13.618,15.917 8.116,21.419 10.946,24.248 16.447,18.746 21.948,24.248z"><title>Remove vertex.</title></path></g><g  transform="translate(391, 2424)" id="v-3181"><circle  idx="1" r="10"></circle><path  idx="1" d="M16,5.333c-7.732,0-14,4.701-14,10.5c0,1.982,0.741,3.833,2.016,5.414L2,25.667l5.613-1.441c2.339,1.317,5.237,2.107,8.387,2.107c7.732,0,14-4.701,14-10.5C30,10.034,23.732,5.333,16,5.333z" transform="translate(5, -33)"></path><path  idx="1" transform="scale(.8) translate(9.5, -37)" d="M24.778,21.419 19.276,15.917 24.777,10.415 21.949,7.585 16.447,13.087 10.945,7.585 8.117,10.415 13.618,15.917 8.116,21.419 10.946,24.248 16.447,18.746 21.948,24.248z"><title>Remove vertex.</title></path></g></g><g  id="v-3194" display="none"><g  id="v-3182"><path  end="source" d="M 26 0 L 0 13 L 26 26 z"></path></g><g  id="v-3183"><path  end="target" d="M 26 0 L 0 13 L 26 26 z"></path></g></g><g  id="v-3193" display="none"><g  id="v-3179" transform="translate(420.19479406601306, 559.9918947213541) "><g  event="remove"><circle r="11"></circle><path transform="scale(.8) translate(-16, -16)" d="M24.778,21.419 19.276,15.917 24.777,10.415 21.949,7.585 16.447,13.087 10.945,7.585 8.117,10.415 13.618,15.917 8.116,21.419 10.946,24.248 16.447,18.746 21.948,24.248z"></path><title>Remove link.</title></g><g  event="link:options"><circle r="11" transform="translate(25)"></circle><path fill="white" transform="scale(.55) translate(29, -16)" d="M31.229,17.736c0.064-0.571,0.104-1.148,0.104-1.736s-0.04-1.166-0.104-1.737l-4.377-1.557c-0.218-0.716-0.504-1.401-0.851-2.05l1.993-4.192c-0.725-0.91-1.549-1.734-2.458-2.459l-4.193,1.994c-0.647-0.347-1.334-0.632-2.049-0.849l-1.558-4.378C17.165,0.708,16.588,0.667,16,0.667s-1.166,0.041-1.737,0.105L12.707,5.15c-0.716,0.217-1.401,0.502-2.05,0.849L6.464,4.005C5.554,4.73,4.73,5.554,4.005,6.464l1.994,4.192c-0.347,0.648-0.632,1.334-0.849,2.05l-4.378,1.557C0.708,14.834,0.667,15.412,0.667,16s0.041,1.165,0.105,1.736l4.378,1.558c0.217,0.715,0.502,1.401,0.849,2.049l-1.994,4.193c0.725,0.909,1.549,1.733,2.459,2.458l4.192-1.993c0.648,0.347,1.334,0.633,2.05,0.851l1.557,4.377c0.571,0.064,1.148,0.104,1.737,0.104c0.588,0,1.165-0.04,1.736-0.104l1.558-4.377c0.715-0.218,1.399-0.504,2.049-0.851l4.193,1.993c0.909-0.725,1.733-1.549,2.458-2.458l-1.993-4.193c0.347-0.647,0.633-1.334,0.851-2.049L31.229,17.736zM16,20.871c-2.69,0-4.872-2.182-4.872-4.871c0-2.69,2.182-4.872,4.872-4.872c2.689,0,4.871,2.182,4.871,4.872C20.871,18.689,18.689,20.871,16,20.871z"></path><title>Link options.</title></g></g></g></g></g><g ></g><g ></g><g ></g></g></svg>